<svg width="34" height="35" viewBox="0 0 34 35" fill="none" xmlns="http://www.w3.org/2000/svg">
<path d="M26.3363 27.6429C27.1155 26.4529 27.3988 25.8579 27.9938 24.5262C23.6305 22.8687 22.9221 16.6496 27.243 14.2696C25.9255 12.6121 24.0696 11.6629 22.3271 11.6629C21.0663 11.6629 20.2021 11.9887 19.423 12.2862C18.7713 12.5412 18.1621 12.7679 17.4396 12.7679C16.6463 12.7679 15.9521 12.5129 15.2155 12.2579C14.408 11.9746 13.5721 11.6629 12.5238 11.6629C10.5546 11.6629 8.47213 12.8671 7.14046 14.9071C5.28463 17.7971 5.5963 23.2229 8.6138 27.8554C9.69046 29.5129 11.1355 31.3687 13.0196 31.3829C13.7988 31.3971 14.323 31.1562 14.8896 30.9012C15.5413 30.6179 16.2355 30.2921 17.4538 30.2921C18.6721 30.2779 19.3663 30.6037 20.0038 30.9012C20.5563 31.1562 21.0663 31.3829 21.8313 31.3829C23.7296 31.3687 25.2596 29.3004 26.3363 27.6429V27.6429Z" stroke="currentColor" stroke-width="1.5" stroke-miterlimit="10" stroke-linecap="round" stroke-linejoin="round"/>
<path opacity="0.4" d="M22.6813 3.15155C22.908 4.70988 22.2705 6.25405 21.4347 7.33072C20.5422 8.49238 18.9838 9.39905 17.4822 9.34238C17.213 7.84072 17.9072 6.29655 18.7572 5.26238C19.7063 4.12905 21.3072 3.25072 22.6813 3.15155V3.15155Z" stroke="currentColor" stroke-width="1.5" stroke-miterlimit="10" stroke-linecap="round" stroke-linejoin="round"/>
</svg>
