<svg width="34" height="34" viewBox="0 0 34 34" fill="none" xmlns="http://www.w3.org/2000/svg">
<path opacity="0.4" d="M19.7497 13.288V17.3442H23.3659C23.6272 17.3442 23.8197 17.578 23.7647 17.8392L23.2422 20.4517C23.2009 20.6442 23.0359 20.7817 22.8434 20.7817H19.7497V30.7505H15.6247V20.7817H13.2872C13.0534 20.7817 12.8747 20.603 12.8747 20.3692V17.7567C12.8747 17.523 13.0534 17.3442 13.2872 17.3442H15.6247V12.8755C15.6247 10.593 17.4672 8.75049 19.7497 8.75049H23.4622C23.6959 8.75049 23.8747 8.92924 23.8747 9.16299V12.463C23.8747 12.6967 23.6959 12.8755 23.4622 12.8755H20.1622C19.9284 12.8755 19.7497 13.0542 19.7497 13.288V13.288Z" stroke="black" stroke-width="1.5" stroke-miterlimit="10" stroke-linecap="round"/>
<path d="M21.1247 30.7505H12.8747C5.99969 30.7505 3.24969 28.0005 3.24969 21.1255V12.8755C3.24969 6.00049 5.99969 3.25049 12.8747 3.25049H21.1247C27.9997 3.25049 30.7497 6.00049 30.7497 12.8755V21.1255C30.7497 28.0005 27.9997 30.7505 21.1247 30.7505Z" stroke="black" stroke-width="1.5" stroke-linecap="round" stroke-linejoin="round"/>
</svg>
