<svg width="34" height="35" viewBox="0 0 34 35" fill="none" xmlns="http://www.w3.org/2000/svg">
<path d="M26.3364 27.6424C27.1156 26.4524 27.3989 25.8574 27.9939 24.5257C23.6306 22.8682 22.9223 16.6491 27.2431 14.2691C25.9256 12.6116 24.0698 11.6624 22.3273 11.6624C21.0664 11.6624 20.2023 11.9882 19.4231 12.2857C18.7714 12.5407 18.1623 12.7674 17.4398 12.7674C16.6464 12.7674 15.9523 12.5124 15.2156 12.2574C14.4081 11.9741 13.5723 11.6624 12.5239 11.6624C10.5548 11.6624 8.47225 12.8666 7.14058 14.9066C5.28475 17.7966 5.59642 23.2224 8.61392 27.8549C9.69058 29.5124 11.1356 31.3682 13.0198 31.3824C13.7989 31.3966 14.3231 31.1557 14.8898 30.9007C15.5414 30.6174 16.2356 30.2916 17.4539 30.2916C18.6723 30.2774 19.3664 30.6032 20.0039 30.9007C20.5564 31.1557 21.0664 31.3824 21.8314 31.3824C23.7298 31.3682 25.2598 29.2999 26.3364 27.6424V27.6424Z" stroke="#FFD369" stroke-width="1.5" stroke-miterlimit="10" stroke-linecap="round" stroke-linejoin="round"/>
<path opacity="0.4" d="M22.6815 3.15106C22.9081 4.7094 22.2706 6.25356 21.4348 7.33023C20.5423 8.4919 18.984 9.39856 17.4823 9.3419C17.2131 7.84023 17.9073 6.29606 18.7573 5.2619C19.7065 4.12856 21.3073 3.25023 22.6815 3.15106V3.15106Z" stroke="#FFD369" stroke-width="1.5" stroke-miterlimit="10" stroke-linecap="round" stroke-linejoin="round"/>
</svg>
