<svg width="76" height="76" viewBox="0 0 76 76" fill="none" xmlns="http://www.w3.org/2000/svg">
<circle cx="38" cy="38" r="38" fill="#BFC3C7"/>
<circle cx="38" cy="38" r="35" fill="#6D3D60" fill-opacity="0.74"/>
<path fill-rule="evenodd" clip-rule="evenodd" d="M30.4246 45.2739C30.1317 44.981 30.1317 44.5061 30.4246 44.2132L36.7886 37.8492L30.4246 31.4853C30.1317 31.1924 30.1317 30.7175 30.4246 30.4246C30.7175 30.1317 31.1924 30.1317 31.4853 30.4246L37.8492 36.7886L44.2132 30.4246C44.5061 30.1317 44.981 30.1317 45.2739 30.4246C45.5668 30.7175 45.5668 31.1924 45.2739 31.4853L38.9099 37.8492L45.2739 44.2132C45.5668 44.5061 45.5668 44.981 45.2739 45.2739C44.981 45.5668 44.5061 45.5668 44.2132 45.2739L37.8492 38.9099L31.4853 45.2739C31.1924 45.5668 30.7175 45.5668 30.4246 45.2739Z" fill="#F1F3F6"/>
<path d="M30.4246 44.2132L30.7782 44.5668L30.4246 44.2132ZM36.7886 37.8492L37.1421 38.2028C37.2359 38.109 37.2886 37.9819 37.2886 37.8492C37.2886 37.7166 37.2359 37.5895 37.1421 37.4957L36.7886 37.8492ZM30.4246 31.4853L30.7782 31.1317L30.4246 31.4853ZM31.4853 30.4246L31.1317 30.7782L31.4853 30.4246ZM37.8492 36.7886L37.4957 37.1421C37.691 37.3374 38.0075 37.3374 38.2028 37.1421L37.8492 36.7886ZM44.2132 30.4246L43.8596 30.0711L44.2132 30.4246ZM45.2739 31.4853L45.6274 31.8388L45.2739 31.4853ZM38.9099 37.8492L38.5563 37.4957C38.4626 37.5895 38.4099 37.7166 38.4099 37.8492C38.4099 37.9819 38.4626 38.109 38.5563 38.2028L38.9099 37.8492ZM37.8492 38.9099L38.2028 38.5564C38.0075 38.3611 37.691 38.3611 37.4957 38.5564L37.8492 38.9099ZM30.0711 43.8597C29.5829 44.3478 29.5829 45.1393 30.0711 45.6274L30.7782 44.9203C30.6805 44.8227 30.6805 44.6644 30.7782 44.5668L30.0711 43.8597ZM36.435 37.4957L30.0711 43.8597L30.7782 44.5668L37.1421 38.2028L36.435 37.4957ZM30.0711 31.8388L36.435 38.2028L37.1421 37.4957L30.7782 31.1317L30.0711 31.8388ZM30.0711 30.0711C29.5829 30.5592 29.5829 31.3507 30.0711 31.8388L30.7782 31.1317C30.6805 31.0341 30.6805 30.8758 30.7782 30.7782L30.0711 30.0711ZM31.8388 30.0711C31.3507 29.5829 30.5592 29.5829 30.0711 30.0711L30.7782 30.7782C30.8758 30.6805 31.0341 30.6805 31.1317 30.7782L31.8388 30.0711ZM38.2028 36.435L31.8388 30.0711L31.1317 30.7782L37.4957 37.1421L38.2028 36.435ZM43.8596 30.0711L37.4957 36.435L38.2028 37.1421L44.5668 30.7782L43.8596 30.0711ZM45.6274 30.0711C45.1393 29.5829 44.3478 29.5829 43.8596 30.0711L44.5668 30.7782C44.6644 30.6805 44.8227 30.6805 44.9203 30.7782L45.6274 30.0711ZM45.6274 31.8388C46.1156 31.3507 46.1156 30.5592 45.6274 30.0711L44.9203 30.7782C45.0179 30.8758 45.0179 31.0341 44.9203 31.1317L45.6274 31.8388ZM39.2635 38.2028L45.6274 31.8388L44.9203 31.1317L38.5563 37.4957L39.2635 38.2028ZM45.6274 43.8597L39.2635 37.4957L38.5563 38.2028L44.9203 44.5668L45.6274 43.8597ZM45.6274 45.6274C46.1156 45.1393 46.1156 44.3478 45.6274 43.8597L44.9203 44.5668C45.0179 44.6644 45.0179 44.8227 44.9203 44.9203L45.6274 45.6274ZM43.8597 45.6274C44.3478 46.1156 45.1393 46.1156 45.6274 45.6274L44.9203 44.9203C44.8227 45.0179 44.6644 45.0179 44.5668 44.9203L43.8597 45.6274ZM37.4957 39.2635L43.8597 45.6274L44.5668 44.9203L38.2028 38.5564L37.4957 39.2635ZM31.8388 45.6274L38.2028 39.2635L37.4957 38.5564L31.1317 44.9203L31.8388 45.6274ZM30.0711 45.6274C30.5592 46.1156 31.3507 46.1156 31.8388 45.6274L31.1317 44.9203C31.0341 45.0179 30.8758 45.0179 30.7782 44.9203L30.0711 45.6274Z" fill="#F1F3F6"/>
</svg>
