<svg width="70" height="70" viewBox="0 0 70 70" fill="none" xmlns="http://www.w3.org/2000/svg">
<rect x="1" y="1" width="68" height="68" rx="34" fill="#22202A" stroke="url(#paint0_linear_501_13386)" stroke-width="2"/>
<path fill-rule="evenodd" clip-rule="evenodd" d="M27.4245 42.2739C27.1316 41.981 27.1316 41.5061 27.4245 41.2132L33.7885 34.8492L27.4245 28.4853C27.1316 28.1924 27.1316 27.7175 27.4245 27.4246C27.7174 27.1317 28.1923 27.1317 28.4852 27.4246L34.8491 33.7886L41.2131 27.4246C41.506 27.1317 41.9808 27.1317 42.2737 27.4246C42.5666 27.7175 42.5666 28.1924 42.2737 28.4853L35.9098 34.8492L42.2737 41.2132C42.5666 41.5061 42.5666 41.981 42.2737 42.2739C41.9808 42.5668 41.506 42.5668 41.2131 42.2739L34.8491 35.9099L28.4852 42.2739C28.1923 42.5668 27.7174 42.5668 27.4245 42.2739Z" fill="#F1F3F6"/>
<path d="M27.4245 41.2132L27.7781 41.5668L27.4245 41.2132ZM33.7885 34.8492L34.142 35.2028C34.2358 35.109 34.2885 34.9819 34.2885 34.8492C34.2885 34.7166 34.2358 34.5895 34.142 34.4957L33.7885 34.8492ZM27.4245 28.4853L27.0709 28.8388L27.4245 28.4853ZM28.4852 27.4246L28.1316 27.7782L28.4852 27.4246ZM34.8491 33.7886L34.4956 34.1421C34.6908 34.3374 35.0074 34.3374 35.2027 34.1421L34.8491 33.7886ZM41.2131 27.4246L41.5666 27.7782L41.2131 27.4246ZM42.2737 28.4853L42.6273 28.8388L42.2737 28.4853ZM35.9098 34.8492L35.5562 34.4957C35.4625 34.5895 35.4098 34.7166 35.4098 34.8492C35.4098 34.9819 35.4625 35.109 35.5562 35.2028L35.9098 34.8492ZM42.2737 41.2132L41.9202 41.5668L42.2737 41.2132ZM41.2131 42.2739L41.5666 41.9203L41.2131 42.2739ZM34.8491 35.9099L35.2027 35.5564C35.0074 35.3611 34.6908 35.3611 34.4956 35.5564L34.8491 35.9099ZM28.4852 42.2739L28.8387 42.6274L28.4852 42.2739ZM27.0709 40.8597C26.5828 41.3478 26.5828 42.1393 27.0709 42.6274L27.7781 41.9203C27.6804 41.8227 27.6804 41.6644 27.7781 41.5668L27.0709 40.8597ZM33.4349 34.4957L27.0709 40.8597L27.7781 41.5668L34.142 35.2028L33.4349 34.4957ZM27.0709 28.8388L33.4349 35.2028L34.142 34.4957L27.7781 28.1317L27.0709 28.8388ZM27.0709 27.0711C26.5828 27.5592 26.5828 28.3507 27.0709 28.8388L27.7781 28.1317C27.6804 28.0341 27.6804 27.8758 27.7781 27.7782L27.0709 27.0711ZM28.8387 27.0711C28.3506 26.5829 27.5591 26.5829 27.0709 27.0711L27.7781 27.7782C27.8757 27.6805 28.034 27.6805 28.1316 27.7782L28.8387 27.0711ZM35.2027 33.435L28.8387 27.0711L28.1316 27.7782L34.4956 34.1421L35.2027 33.435ZM40.8595 27.0711L34.4956 33.435L35.2027 34.1421L41.5666 27.7782L40.8595 27.0711ZM42.6273 27.0711C42.1391 26.5829 41.3477 26.5829 40.8595 27.0711L41.5666 27.7782C41.6643 27.6805 41.8226 27.6805 41.9202 27.7782L42.6273 27.0711ZM42.6273 28.8388C43.1154 28.3507 43.1154 27.5592 42.6273 27.0711L41.9202 27.7782C42.0178 27.8758 42.0178 28.0341 41.9202 28.1317L42.6273 28.8388ZM36.2633 35.2028L42.6273 28.8388L41.9202 28.1317L35.5562 34.4957L36.2633 35.2028ZM42.6273 40.8597L36.2633 34.4957L35.5562 35.2028L41.9202 41.5668L42.6273 40.8597ZM42.6273 42.6274C43.1154 42.1393 43.1155 41.3478 42.6273 40.8597L41.9202 41.5668C42.0178 41.6644 42.0178 41.8227 41.9202 41.9203L42.6273 42.6274ZM40.8595 42.6274C41.3477 43.1156 42.1391 43.1156 42.6273 42.6274L41.9202 41.9203C41.8226 42.0179 41.6643 42.0179 41.5666 41.9203L40.8595 42.6274ZM34.4956 36.2635L40.8595 42.6274L41.5666 41.9203L35.2027 35.5564L34.4956 36.2635ZM28.8387 42.6274L35.2027 36.2635L34.4956 35.5564L28.1316 41.9203L28.8387 42.6274ZM27.0709 42.6274C27.5591 43.1156 28.3506 43.1156 28.8387 42.6274L28.1316 41.9203C28.034 42.0179 27.8757 42.0179 27.7781 41.9203L27.0709 42.6274Z" fill="#F1F3F6"/>
<defs>
<linearGradient id="paint0_linear_501_13386" x1="35" y1="0" x2="35" y2="70" gradientUnits="userSpaceOnUse">
<stop stop-color="#C4C9CD"/>
<stop offset="1" stop-color="#747376"/>
</linearGradient>
</defs>
</svg>
