<svg width="34" height="34" viewBox="0 0 34 34" fill="none" xmlns="http://www.w3.org/2000/svg">
<path opacity="0.4" d="M19.7498 13.2875V17.3438H23.366C23.6273 17.3438 23.8198 17.5775 23.7648 17.8387L23.2423 20.4513C23.201 20.6438 23.036 20.7812 22.8435 20.7812H19.7498V30.75H15.6248V20.7812H13.2873C13.0535 20.7812 12.8748 20.6025 12.8748 20.3687V17.7563C12.8748 17.5225 13.0535 17.3438 13.2873 17.3438H15.6248V12.875C15.6248 10.5925 17.4673 8.75 19.7498 8.75H23.4623C23.696 8.75 23.8748 8.92875 23.8748 9.1625V12.4625C23.8748 12.6962 23.696 12.875 23.4623 12.875H20.1623C19.9285 12.875 19.7498 13.0538 19.7498 13.2875V13.2875Z" stroke="#FFD369" stroke-width="1.5" stroke-miterlimit="10" stroke-linecap="round"/>
<path d="M21.1248 30.75H12.8748C5.99976 30.75 3.24976 28 3.24976 21.125V12.875C3.24976 6 5.99976 3.25 12.8748 3.25H21.1248C27.9998 3.25 30.7498 6 30.7498 12.875V21.125C30.7498 28 27.9998 30.75 21.1248 30.75Z" stroke="#FFD369" stroke-width="1.5" stroke-linecap="round" stroke-linejoin="round"/>
</svg>
