<svg width="76" height="76" viewBox="0 0 76 76" fill="none" xmlns="http://www.w3.org/2000/svg">
<circle cx="38" cy="38" r="38" fill="#BFC3C7"/>
<circle cx="38" cy="38" r="35" fill="#6D3D60" fill-opacity="0.36"/>
<path d="M50.5175 51.4351V47.5725M47.2162 38.9988H50.0175C50.2936 38.9988 50.5175 39.2226 50.5175 39.4988V47.5725M47.2162 38.9988V30.9988C47.2162 30.1703 46.5446 29.4988 45.7162 29.4988H29.7837M47.2162 38.9988L42.8937 38.9987M29.7837 29.4988V21.6875C29.7837 21.1352 29.336 20.6875 28.7837 20.6875H25.3662M29.7837 29.4988V33.2473M55.125 47.5725H50.5175" stroke="#F1F3F6" stroke-width="1.5" stroke-miterlimit="10" stroke-linecap="round"/>
<path d="M32.5625 56.74C39.1209 56.74 44.4375 51.4233 44.4375 44.865C44.4375 38.3066 39.1209 32.99 32.5625 32.99C26.0041 32.99 20.6875 38.3066 20.6875 44.865C20.6875 51.4233 26.0041 56.74 32.5625 56.74Z" stroke="#F1F3F6" stroke-width="1.5" stroke-miterlimit="10"/>
<path opacity="0.5" d="M32.5625 52.0613C36.5368 52.0613 39.7587 48.8394 39.7587 44.865C39.7587 40.8907 36.5368 37.6688 32.5625 37.6688C28.5881 37.6688 25.3662 40.8907 25.3662 44.865C25.3662 48.8394 28.5881 52.0613 32.5625 52.0613Z" stroke="#808080" stroke-miterlimit="10"/>
<path d="M50.5175 56.7401C51.921 56.7401 53.0588 55.6023 53.0588 54.1988C53.0588 52.7953 51.921 51.6576 50.5175 51.6576C49.114 51.6576 47.9762 52.7953 47.9762 54.1988C47.9762 55.6023 49.114 56.7401 50.5175 56.7401Z" stroke="#D1D1D6" stroke-miterlimit="10"/>
</svg>
