<svg width="76" height="76" viewBox="0 0 76 76" fill="none" xmlns="http://www.w3.org/2000/svg">
<circle cx="38" cy="38" r="38" fill="#BFC3C7"/>
<circle cx="38" cy="38" r="35" fill="#6D3D60" fill-opacity="0.74"/>
<path fill-rule="evenodd" clip-rule="evenodd" d="M38.6724 43.0059C38.6724 42.5917 38.3366 42.2559 37.9224 42.2559C37.5081 42.2559 37.1724 42.5917 37.1724 43.0059V49.3735H31.5941C31.1799 49.3735 30.8441 49.7093 30.8441 50.1235C30.8441 50.5377 31.1799 50.8735 31.5941 50.8735H37.1724V55.5588C37.1724 55.973 37.5081 56.3088 37.9224 56.3088C38.3366 56.3088 38.6724 55.973 38.6724 55.5588V50.8735H44.1471C44.5613 50.8735 44.8971 50.5377 44.8971 50.1235C44.8971 49.7093 44.5613 49.3735 44.1471 49.3735H38.6724V43.0059Z" fill="#F1F3F6"/>
<circle cx="38" cy="30" r="11.75" stroke="#848382" stroke-width="1.5"/>
</svg>
