<svg width="40" height="44" viewBox="0 0 40 44" fill="none" xmlns="http://www.w3.org/2000/svg">
<path d="M1 15.875V28.1362C1 32.6412 1 32.6412 5.25 35.51L16.9375 42.2675C18.7012 43.2875 21.57 43.2875 23.3125 42.2675L35 35.51C39.25 32.6412 39.25 32.6412 39.25 28.1575V15.875C39.25 11.3912 39.25 11.3912 35 8.5225L23.3125 1.765C21.57 0.745 18.7012 0.745 16.9375 1.765L5.25 8.5225C1 11.3912 1 11.3912 1 15.875Z" stroke="url(#paint0_linear_1_70)" stroke-width="1.5" stroke-linecap="round" stroke-linejoin="round"/>
<path d="M20.125 28.3912C21.8158 28.3912 23.4373 27.7196 24.6328 26.524C25.8284 25.3285 26.5 23.707 26.5 22.0162C26.5 20.3255 25.8284 18.704 24.6328 17.5084C23.4373 16.3129 21.8158 15.6412 20.125 15.6412C18.4342 15.6412 16.8127 16.3129 15.6172 17.5084C14.4216 18.704 13.75 20.3255 13.75 22.0162C13.75 23.707 14.4216 25.3285 15.6172 26.524C16.8127 27.7196 18.4342 28.3912 20.125 28.3912V28.3912Z" stroke="#7C6221" stroke-width="1.5" stroke-linecap="round" stroke-linejoin="round"/>
<defs>
<linearGradient id="paint0_linear_1_70" x1="20.125" y1="1" x2="20.125" y2="43.0325" gradientUnits="userSpaceOnUse">
<stop stop-color="#FDCA41"/>
<stop offset="1" stop-color="#FBB50C"/>
</linearGradient>
</defs>
</svg>
