<svg width="114" height="46" viewBox="0 0 114 46" fill="none" xmlns="http://www.w3.org/2000/svg">
<rect width="114" height="46" rx="23" fill="#8D99AE" fill-opacity="0.5"/>
<ellipse cx="90.9735" cy="23" rx="19.2517" ry="19.2295" fill="#2B2D42"/>
<path d="M100.35 26.7891L101.275 27.1699C101.434 26.7843 101.336 26.3406 101.031 26.0567C100.726 25.7728 100.276 25.7082 99.903 25.8947L100.35 26.7891ZM90.1553 14.358L90.962 14.9491C91.2078 14.6136 91.2203 14.161 90.9933 13.8124C90.7664 13.4639 90.3475 13.2922 89.9412 13.3812L90.1553 14.358ZM96.7346 26.6408C92.7752 26.6408 89.5396 23.3775 89.5396 19.3198L87.5396 19.3198C87.5396 24.4532 91.642 28.6408 96.7346 28.6408L96.7346 26.6408ZM99.903 25.8947C98.9478 26.3724 97.8732 26.6408 96.7346 26.6408L96.7346 28.6408C98.1915 28.6408 99.5715 28.2965 100.797 27.6836L99.903 25.8947ZM99.4255 26.4084C98.2162 29.3454 95.3668 31.3942 92.0592 31.3942L92.0592 33.3942C96.2192 33.3942 99.7732 30.8167 101.275 27.1699L99.4255 26.4084ZM92.0592 31.3942C87.6649 31.3942 84.0767 27.7728 84.0767 23.2735L82.0767 23.2735C82.0767 28.8485 86.5317 33.3942 92.0592 33.3942L92.0592 31.3942ZM84.0767 23.2735C84.0767 19.3691 86.7821 16.121 90.3694 15.3349L89.9412 13.3812C85.4356 14.3685 82.0767 18.43 82.0767 23.2735L84.0767 23.2735ZM89.5396 19.3198C89.5396 17.6789 90.069 16.1678 90.962 14.9491L89.3486 13.767C88.2115 15.319 87.5396 17.2419 87.5396 19.3198L89.5396 19.3198Z" fill="#EDF2F4"/>
</svg>
