<svg width="472" height="538" viewBox="0 0 472 538" fill="none" xmlns="http://www.w3.org/2000/svg">
<path d="M0.5 24.3342V25.0921V25.8461V26.5961V27.3421V28.0841V28.8222V29.5564V30.2867V31.0131V31.7356V32.4542V33.1689V33.8799V34.5869V35.2902V35.9897V36.6854V37.3774V38.0655V38.75V39.4307V40.1077V40.781V41.4507V42.1166V42.779V43.4377V44.0927V44.7442V45.392V46.0363V46.677V47.3142V47.9479V48.578V49.2046V49.8277V50.4474V51.0635V51.6763V52.2856V52.8915V53.494V54.0931V54.6888V55.2812V55.8702V56.4559V57.0382V57.6173V58.1931V58.7656V59.3349V59.9009V60.4637V61.0232V61.5796V62.1328V62.6828V63.2297V63.7734V64.314V64.8515V65.3859V65.9172V66.4454V66.9706V67.4928V68.0119V68.528V69.0411V69.5513V70.0584V70.5627V71.064V71.5623V72.0578V72.5503V73.04V73.5268V74.0108V74.492V74.9703V75.4458V75.9185V76.3885V76.8556V77.3201V77.7818V78.2408V78.6971V79.1507V79.6016V80.0498V80.4955V80.9384V81.3788V81.8166V82.2518V82.6844V83.1144V83.5419V83.9669V84.3894V84.8094V85.2268V85.6419V86.0544V86.4645V86.8722V87.2775V87.6804V88.0809V88.479V88.8748V89.2682V89.6594V90.0482V90.4347V90.8189V91.2009V91.5806V91.9581V92.3333V92.7064V93.0772V93.4459V93.8124V94.1768V94.539V94.8991V95.2571V95.613V95.9669V96.3186V96.6684V97.0161V97.3617V97.7054V98.0471V98.3868V98.7245V99.0603V99.3942V99.7262V100.056V100.384V100.711V101.035V101.358V101.679V101.997V102.315V102.63V102.944V103.255V103.566V103.874V104.181V104.486V104.789V105.09V105.39V105.689V105.985V106.281V106.574V106.866V107.156V107.445V107.732V108.018V108.302V108.585V108.866V109.146V109.424V109.701V109.977V110.251V110.524V110.795V111.065V111.333V111.601V111.867V112.131V112.395V112.657V112.918V113.177V113.436V113.693V113.949V114.203V114.457V114.709V114.961V115.211V115.46V115.708V115.955V116.2V116.445V116.689V116.931V117.173V117.414V117.653V117.892V118.13V118.367V118.602V118.837V119.071V119.305V119.537V119.768V119.999V120.229V120.458V120.686V120.913V121.14V121.366V121.591V121.816V122.039V122.263V122.485V122.707V122.928V123.148V123.368V123.587V123.806V124.024V124.241V124.458V124.675V124.891V125.106V125.321V125.535V125.749V125.963V126.176V126.389V126.601V126.813V127.024V127.236V127.446V127.657V127.867V128.077V128.287V128.496V128.705V128.914V129.123V129.331V129.539V129.747V129.955V130.163V130.371V130.578V130.785V130.993V131.2V131.407V131.614V131.821V132.028V132.235V132.442V132.649V132.856V133.063V133.271V133.478V133.685V133.893V134.1V134.308V134.516V134.724V134.932V135.141V135.35V135.558V135.768V135.977V136.187V136.397V136.607V136.817V137.028V137.24V137.451V137.663V137.875V138.088V138.301V138.515V138.729V138.944V139.159V139.374V139.59V139.807V140.024V140.241V140.459V140.678V140.897V141.117V141.338V141.559V141.781V142.003V142.226V142.45V142.675V142.9V143.126V143.353V143.581V143.809V144.038V144.268V144.499V144.73V144.963V145.196V145.43V145.665V145.901V146.138V146.376V146.615V146.855V147.096V147.337V147.58V147.824V148.069V148.315V148.562V148.81V149.059V149.31V149.561V149.814V150.067V150.322V150.578V150.836V151.094V151.354V151.615V151.877V152.141V152.406V152.672V152.94V153.208V153.479V153.75V154.023V154.297V154.573V154.85V155.129V155.409V155.69V155.973V156.258V156.544V156.831V157.12V157.411V157.703V157.997V158.292V158.589V158.888V159.188V159.49V159.793V160.098V160.405V160.714V161.024V161.337V161.65V161.966V162.283V162.603V162.924V163.247V163.571V163.898V164.226V164.557V164.889V165.223V165.559V165.897V166.237V166.579V166.923V167.269V167.617V167.967V168.32V168.674V169.03V169.388V169.749V170.111V170.476V170.843V171.212V171.583V171.957V172.332V172.71V173.09V173.472V173.857V174.244V174.633V175.024V175.418V175.814V176.213V176.614V177.017V177.423V177.831V178.241V178.654V179.07V179.488V179.908V180.331V180.756V181.184V181.615V182.048V182.483V182.921V183.362V183.806V184.252V184.7V185.152V185.606V186.062V186.522V186.984V187.449V187.916V188.387V188.86V189.336V189.815V190.296V190.781V191.268V191.758V192.251V192.747V193.246V193.748V194.252V194.76V195.271V195.784V196.301V196.82V197.343V197.869V198.397V198.929V199.464V200.002V200.543V201.087V201.635V202.185V202.739V203.296V203.856V204.419V204.986V205.555V206.128V206.705V207.284V207.867V208.453V209.043V209.636V210.232V210.832V211.435V212.041V212.651V213.264V214.009V214.748V215.483V216.214V216.939V217.66V218.376V219.088V219.795V220.497V221.195V221.888V222.577V223.261V223.94V224.616V225.286V225.953V226.614V227.272V227.925V228.574V229.218V229.858V230.494V231.125V231.752V232.375V232.994V233.608V234.218V234.824V235.426V236.024V236.618V237.207V237.793V238.374V238.951V239.525V240.094V240.659V241.221V241.778V242.332V242.881V243.427V243.969V244.507V245.041V245.572V246.098V246.621V247.14V247.655V248.167V248.675V249.179V249.68V250.177V250.67V251.16V251.646V252.128V252.607V253.083V253.555V254.024V254.489V254.95V255.408V255.863V256.315V256.763V257.207V257.649V258.087V258.522V258.953V259.381V259.806V260.228V260.647V261.062V261.474V261.883V262.289V262.692V263.092V263.489V263.883V264.273V264.661V265.046V265.427V265.806V266.182V266.555V266.925V267.292V267.657V268.018V268.377V268.733V269.086V269.436V269.784V270.129V270.471V270.811V271.148V271.482V271.814V272.143V272.469V272.793V273.114V273.433V273.75V274.063V274.375V274.684V274.99V275.294V275.596V275.895V276.192V276.487V276.779V277.069V277.357V277.643V277.926V278.207V278.486V278.763V279.037V279.31V279.58V279.848V280.114V280.378V280.64V280.9V281.158V281.414V281.668V281.92V282.17V282.419V282.665V282.909V283.152V283.393V283.632V283.869V284.104V284.338V284.57V284.8V285.029V285.255V285.48V285.704V285.926V286.146V286.365V286.582V286.798V287.012V287.224V287.435V287.645V287.853V288.06V288.265V288.469V288.672V288.873V289.073V289.271V289.469V289.665V289.859V290.053V290.245V290.436V290.626V290.815V291.003V291.189V291.375V291.559V291.742V291.924V292.105V292.286V292.465V292.643V292.82V292.997V293.172V293.346V293.52V293.693V293.865V294.036V294.206V294.376V294.545V294.713V294.88V295.047V295.213V295.378V295.543V295.707V295.871V296.033V296.196V296.358V296.519V296.68V296.84V297V297.159V297.318V297.476V297.634V297.792V297.949V298.107V298.263V298.42V298.576V298.732V298.887V299.043V299.198V299.353V299.508V299.663V299.817V299.972V300.126V300.281V300.435V300.589V300.744V300.898V301.052V301.207V301.361V301.516V301.67V301.825V301.98V302.135V302.29V302.446V302.602V302.758V302.914V303.07V303.227V303.384V303.542V303.699V303.857V304.016V304.175V304.334V304.494V304.655V304.815V304.977V305.139V305.301V305.464V305.628V305.792V305.957V306.122V306.288V306.455V306.623V306.791V306.96V307.13V307.3V307.471V307.643V307.816V307.99V308.165V308.341V308.517V308.694V308.873V309.052V309.233V309.414V309.596V309.78V309.964V310.15V310.337V310.524V310.713V310.904V311.095V311.287V311.481V311.676V311.872V312.07V312.269V312.469V312.67V312.873V313.077V313.283V313.49V313.698V313.908V314.12V314.333V314.547V314.763V314.98V315.199V315.42V315.642V315.866V316.091V316.318V316.547V316.778V317.01V317.244V317.48V317.717V317.957V318.198V318.441V318.685V318.932V319.181V319.431V319.684V319.938V320.194V320.453V320.713V320.975V321.24V321.506V321.775V322.046V322.318V322.593V322.871V323.15V323.431V323.715V324.001V324.289V324.58V324.872V325.168V325.465V325.765V326.067V326.372V326.678V326.988V327.3V327.614V327.931V328.25V328.572V328.896V329.223V329.553V329.885V330.22V330.557V330.897V331.24V331.586V331.934V332.285V332.638V332.995V333.354V333.716V334.081V334.449V334.819V335.193V335.569V335.949V336.331V336.716V337.104V337.496V337.89V338.287V338.688V339.091V339.498V339.907V340.32V340.736V341.156V341.578V342.004V342.432V342.864V343.3V343.739V344.181V344.626V345.075V345.527V345.982V346.441V346.903V347.369V347.838V348.311V348.787V349.267V349.75V350.237V350.727V351.221V351.719V352.22V352.725V353.234V353.746V354.262V354.782V355.305V355.833V356.364V356.899V357.437V357.98V358.526V359.077V359.631V360.189V360.751V361.318V361.888V362.462V363.04V363.622V364.208V364.799V365.393V365.992V366.594V367.201V367.812V368.427V369.047V369.671V370.298V370.931V371.567V372.208V372.853V373.503V374.157V374.815V375.477V376.145V376.816V377.492V378.173V378.858V379.547V380.241V380.94V381.643V382.351V383.063V383.78V384.502V385.229V385.96V386.695V387.436V388.181V388.931V389.686V390.446V391.211V391.98V392.754V393.533V394.317V395.106V395.9V396.699V397.503V398.312V399.126V399.945V400.571V401.194V401.813V402.429V403.042V403.65V404.256V404.858V405.456V406.051V406.643V407.231V407.815V408.397V408.975V409.549V410.121V410.688V411.253V411.814V412.372V412.927V413.478V414.026V414.571V415.113V415.651V416.186V416.718V417.247V417.772V418.294V418.813V419.329V419.842V420.352V420.859V421.362V421.863V422.36V422.854V423.345V423.834V424.319V424.801V425.28V425.756V426.229V426.7V427.167V427.631V428.092V428.551V429.006V429.459V429.909V430.355V430.799V431.241V431.679V432.114V432.547V432.977V433.404V433.828V434.25V434.669V435.085V435.498V435.909V436.317V436.722V437.124V437.524V437.922V438.316V438.708V439.097V439.484V439.868V440.25V440.629V441.005V441.379V441.751V442.119V442.486V442.85V443.211V443.57V443.926V444.28V444.632V444.981V445.327V445.672V446.014V446.353V446.69V447.025V447.358V447.688V448.016V448.341V448.664V448.985V449.304V449.62V449.935V450.247V450.556V450.864V451.169V451.472V451.773V452.072V452.369V452.664V452.956V453.246V453.535V453.821V454.105V454.387V454.667V454.945V455.221V455.495V455.767V456.036V456.304V456.57V456.834V457.097V457.357V457.615V457.871V458.126V458.378V458.629V458.878V459.125V459.37V459.614V459.855V460.095V460.333V460.569V460.804V461.036V461.267V461.497V461.724V461.95V462.174V462.397V462.618V462.837V463.055V463.271V463.485V463.698V463.909V464.118V464.326V464.533V464.738V464.941V465.143V465.343V465.542V465.74V465.936V466.13V466.323V466.515V466.705V466.894V467.081V467.268V467.452V467.636V467.818V467.998V468.177V468.355V468.532V468.708V468.882V469.055V469.226V469.397V469.566V469.734V469.901V470.066V470.231V470.394V470.556V470.717V470.877V471.036V471.194V471.35V471.506V471.66V471.813V471.966V472.117V472.267V472.416V472.565V472.712V472.858V473.004V473.148V473.292V473.434V473.576V473.717V473.857V473.996V474.134V474.271V474.408V474.543V474.678V474.812V474.945V475.078V475.21V475.341V475.471V475.6V475.729V475.857V475.985V476.112V476.238V476.363V476.488V476.612V476.736V476.859V476.981V477.103V477.224V477.344V477.465V477.584V477.703V477.822V477.94V478.057V478.174V478.291V478.407V478.523V478.638V478.753V478.868V478.982V479.096V479.209V479.322V479.435V479.547V479.659V479.771V479.883V479.994V480.105V480.216V480.326V480.436V480.546V480.656V480.766V480.875V480.984V481.094V481.203V481.311V481.42V481.529V481.637V481.746V481.854V481.962V482.071V482.179V482.287V482.395V482.504V482.612V482.72V482.828V482.937V483.045V483.154V483.262V483.371V483.48V483.589V483.698V483.807V483.916V484.026V484.135V484.245V484.355V484.466V484.576V484.687V484.798V484.91V485.021V485.133V485.245V485.358V485.471V485.584V485.698V485.812V485.926V486.041V486.156V486.271V486.387V486.504V486.62V486.738V486.855V486.974V487.092V487.212V487.332V487.452V487.573V487.694V487.816V487.939V488.062V488.186V488.31V488.435V488.561V488.688V488.815V488.942V489.071V489.2V489.33V489.46V489.592V489.724V489.857V489.99V490.125V490.26V490.396V490.533V490.67V490.809V490.948V491.089V491.23V491.372V491.515V491.659V491.804V491.95V492.096V492.244V492.393V492.543V492.693V492.845V492.998V493.152V493.307V493.463V493.62V493.778V493.937V494.097V494.259V494.422V494.585V494.75V494.916V495.084V495.252V495.422V495.593V495.765V495.939V496.113V496.289V496.467V496.645V496.825V497.007V497.189V497.373V497.558V497.745V497.933V498.123V498.313V498.506V498.699V498.895V499.091V499.289V499.489V499.69V499.893V500.097V500.302V500.509V500.718V500.928V501.14V501.354V501.569V501.786V502.004V502.224V502.446V502.669V502.894V503.12V503.349V503.579V503.811V504.044V504.279V504.516V504.755V504.996V505.238V505.482V505.728V505.976V506.226V506.478V506.731V506.986V507.244V507.503V507.764V508.027V508.292V508.559V508.827V509.098V509.371V509.646V509.923V510.202V510.482V510.765V511.05V511.337V511.627V511.918V512.211V512.507V512.805V513.104V513.406V513.711V514.017V514.325V514.636V514.949V515.264V515.582V515.902V516.224V516.548V516.874V517.203V517.534V517.868V518.204V518.542V518.883V519.226V519.571V519.919V520.269V520.622V520.977V521.334V521.694V522.057V522.422V522.789V523.159V523.532V523.907V524.284V524.664V525.047V525.432V525.82V526.211V526.604V527V527.398C0.5 531.721 1.68109 534.422 3.76691 535.924C5.8768 537.444 9.0473 537.84 13.2594 537.218C21.6797 535.974 33.8097 530.738 48.5795 523.466C55.4649 520.076 62.9132 516.249 70.8076 512.193C96.7109 498.884 127.418 483.107 158.802 472.196C187.168 462.334 217.702 455.666 248.205 449.475C252.774 448.548 257.341 447.631 261.9 446.717C287.795 441.521 313.431 436.377 337.492 429.614C394.084 413.706 441.811 388.877 463.514 333.521C474.214 306.23 473.472 281.902 465.378 259.19C457.278 236.459 441.804 215.323 422.996 194.45C410.529 180.613 396.622 166.918 382.447 152.959C375.231 145.853 367.946 138.679 360.746 131.383C339.416 109.769 318.858 87.1086 303.193 62.0858C293.499 46.5993 286.219 36.6217 279.499 30.2607C272.802 23.9215 266.666 21.1789 259.231 20.1717C252.756 19.2946 245.304 19.7318 235.606 20.3006C234.097 20.3891 232.534 20.4808 230.912 20.5712C218.886 21.2415 203.685 21.8343 183.467 20.4989C143.864 17.8831 109.723 12.2431 82.4272 7.73388L80.7726 7.46057C66.9854 5.18377 54.9994 3.22537 44.9797 2.13232C34.9501 1.0382 26.9438 0.818089 21.0983 1.99024C7.36572 4.74391 0.5 15.1929 0.5 24.3342Z" stroke="url(#paint0_linear_28_2239)"/>
<defs>
<linearGradient id="paint0_linear_28_2239" x1="110.5" y1="18" x2="224" y2="524" gradientUnits="userSpaceOnUse">
<stop stop-color="#F9CC25"/>
<stop offset="0.195906" stop-color="#FBCF3F" stop-opacity="0"/>
<stop offset="0.475542" stop-color="#FDD04C" stop-opacity="0"/>
<stop offset="0.778636" stop-color="#FED156" stop-opacity="0"/>
<stop offset="0.997481" stop-color="#FFD365"/>
</linearGradient>
</defs>
</svg>
