<svg width="365" height="398" viewBox="0 0 365 398" fill="none" xmlns="http://www.w3.org/2000/svg">
<path d="M137.957 20.4381C38.5769 67.0429 -17.9526 180.958 5.9628 288.539C16.4701 335.806 45.2732 363.597 83.8459 379.278C122.45 394.971 170.838 398.529 220.447 397.266C243.51 396.679 262.527 396.956 278.421 397.187C283.967 397.268 289.133 397.343 293.958 397.374C312.62 397.494 326.144 396.951 336.91 393.555C348.922 388.388 358.33 377.581 364.5 358.402L364.5 99.6891C364.5 50.5141 330.225 20.2713 284.692 7.52157C239.147 -5.23117 182.457 -0.430202 137.957 20.4381Z" stroke="url(#paint0_linear_28_2234)"/>
<defs>
<linearGradient id="paint0_linear_28_2234" x1="182.5" y1="5.30227e-06" x2="85.5" y2="249.5" gradientUnits="userSpaceOnUse">
<stop stop-color="#FACD30"/>
<stop offset="0.850751" stop-color="#FFD365" stop-opacity="0"/>
</linearGradient>
</defs>
</svg>
