<svg width="196" height="505" viewBox="0 0 196 505" fill="none" xmlns="http://www.w3.org/2000/svg">
<path d="M194.5 442.5C194.5 442.5 194.5 442.5 195 442.5H194.5V442.569L194.518 442.633L194.518 442.634L194.518 442.635L194.519 442.635L194.519 442.636L194.523 442.653C194.527 442.671 194.534 442.701 194.542 442.743C194.558 442.827 194.579 442.958 194.597 443.134C194.631 443.486 194.649 444.018 194.575 444.713C194.429 446.101 193.916 448.148 192.425 450.707C189.44 455.83 182.522 463.023 166.734 471.054C145.698 481.755 138.009 489.545 133.447 494.933C132.91 495.567 132.421 496.161 131.962 496.719C130.461 498.544 129.285 499.975 127.815 501.106C125.945 502.545 123.584 503.499 119.436 503.995C115.632 503.32 112.527 500.972 109.962 497.247C107.376 493.491 105.361 488.363 103.762 482.234C100.564 469.975 99.0673 453.857 97.905 437.062C97.6283 433.064 97.3706 429.028 97.1133 424.998C96.2911 412.121 95.4731 399.308 94.0525 388.008C93.1196 380.587 91.9249 373.8 90.2929 368.06C88.6629 362.327 86.5857 357.597 83.8641 354.323C79.8674 349.515 74.7849 345.098 69.4703 340.804C67.7138 339.385 65.9341 337.981 64.1584 336.58C60.5464 333.73 56.9514 330.893 53.6039 327.971C43.6124 319.252 36.0607 309.968 37.1903 297.887C37.9667 289.584 42.4844 282.441 48.7877 275.856C54.4156 269.976 61.4222 264.586 68.3759 259.236C69.2156 258.59 70.0546 257.945 70.8902 257.299C78.6241 251.324 86.0806 245.328 91.1196 238.734C96.1729 232.122 98.8285 224.862 96.8832 216.39C94.798 207.308 89.03 201.129 81.3458 196.474C73.6776 191.829 64.0603 188.676 54.2138 185.652C53.1493 185.325 52.082 185 51.0141 184.674C42.18 181.981 33.2973 179.273 25.4982 175.577C16.7625 171.438 9.44927 166.088 5.12337 158.2C-1.42295 146.265 -0.266803 132.657 3.94604 118.794C6.98188 108.804 11.5792 98.7547 15.968 89.1612C17.6754 85.4289 19.3513 81.7657 20.8914 78.2017C23.6409 71.839 26.2389 64.1833 28.941 56.2211C29.2882 55.1979 29.6371 54.1697 29.9883 53.1385C33.0767 44.0702 36.3429 34.7626 40.1668 26.5745C43.9938 18.3796 48.3573 11.3561 53.6162 6.8216C58.8512 2.30763 64.9704 0.259037 72.3904 1.98696C96.8687 7.68732 112.672 26.8107 126.988 49.005C130.495 54.4429 133.909 60.0573 137.338 65.6976L137.54 66.0287C141.036 71.7783 144.55 77.5515 148.193 83.1767C155.476 94.4257 163.286 105.105 172.523 113.864C177 118.109 182.587 121.247 187.038 123.321C189.267 124.36 191.217 125.134 192.612 125.65C193.309 125.907 193.868 126.1 194.253 126.229C194.345 126.26 194.428 126.288 194.5 126.311V126.34V126.374V126.41V126.448V126.486V126.526V126.568V126.611V126.655V126.701V126.748V126.797V126.847V126.898V126.951V127.004V127.06V127.116V127.174V127.234V127.295V127.357V127.42V127.485V127.551V127.618V127.686V127.756V127.828V127.9V127.974V128.049V128.125V128.203V128.282V128.362V128.444V128.526V128.61V128.696V128.782V128.87V128.959V129.049V129.14V129.233V129.327V129.422V129.518V129.616V129.715V129.815V129.916V130.018V130.121V130.226V130.332V130.439V130.547V130.656V130.767V130.879V130.991V131.105V131.221V131.337V131.454V131.573V131.692V131.813V131.935V132.058V132.182V132.307V132.433V132.561V132.689V132.819V132.949V133.081V133.214V133.348V133.483V133.618V133.755V133.894V134.033V134.173V134.314V134.456V134.599V134.744V134.889V135.035V135.182V135.331V135.48V135.63V135.782V135.934V136.087V136.241V136.396V136.553V136.71V136.868V137.027V137.187V137.348V137.51V137.673V137.836V138.001V138.167V138.333V138.501V138.669V138.838V139.008V139.179V139.351V139.524V139.698V139.873V140.048V140.224V140.402V140.58V140.759V140.939V141.119V141.301V141.483V141.666V141.85V142.035V142.221V142.407V142.594V142.783V142.971V143.161V143.352V143.543V143.735V143.928V144.122V144.316V144.511V144.707V144.904V145.101V145.3V145.498V145.698V145.899V146.1V146.302V146.504V146.708V146.912V147.117V147.322V147.528V147.735V147.943V148.151V148.36V148.57V148.78V148.991V149.203V149.415V149.628V149.842V150.056V150.271V150.486V150.703V150.92V151.137V151.355V151.574V151.793V152.013V152.234V152.455V152.677V152.899V153.122V153.345V153.569V153.794V154.019V154.245V154.472V154.698V154.926V155.154V155.383V155.612V155.841V156.071V156.302V156.533V156.765V156.997V157.23V157.463V157.697V157.931V158.166V158.401V158.637V158.873V159.11V159.347V159.585V159.823V160.061V160.3V160.54V160.78V161.02V161.261V161.502V161.743V161.985V162.228V162.471V162.714V162.958V163.202V163.446V163.691V163.936V164.182V164.428V164.674V164.921V165.168V165.415V165.663V165.911V166.159V166.408V166.657V166.907V167.157V167.407V167.657V167.908V168.159V168.411V168.662V168.914V169.166V169.419V169.672V169.925V170.178V170.432V170.686V170.94V171.195V171.449V171.704V171.959V172.215V172.47V172.726V172.982V173.239V173.495V173.752V174.009V174.266V174.523V174.781V175.039V175.297V175.555V175.813V176.072V176.33V176.589V176.848V177.107V177.366V177.626V177.885V178.145V178.405V178.665V178.925V179.185V179.445V179.706V179.966V180.227V180.488V180.748V181.009V181.27V181.531V181.793V182.054V182.315V182.576V182.838V183.099V183.361V183.622V183.884V184.145V184.407V184.669V184.93V185.192V185.454V185.716V185.977V186.239V186.501V186.762V187.024V187.286V187.548V187.809V188.071V188.332V188.594V188.855V189.117V189.378V189.639V189.901V190.162V190.423V190.684V190.945V191.206V191.467V191.727V191.988V192.249V192.509V192.769V193.029V193.29V193.549V193.809V194.069V194.328V194.588V194.847V195.106V195.365V195.624V195.882V196.141V196.399V196.657V196.915V197.173V197.43V197.688V197.945V198.202V198.459V198.715V198.971V199.227V199.483V199.739V199.994V200.249V200.504V200.759V201.013V201.267V201.521V201.775V202.028V202.281V202.534V202.787V203.039V203.291V203.542V203.794V204.045V204.295V204.546V204.796V205.046V205.295V205.544V205.793V206.041V206.289V206.537V206.785V207.032V207.278V207.524V207.77V208.016V208.261V208.506V208.75V208.994V209.238V209.481V209.724V209.966V210.208V210.449V210.691V210.931V211.171V211.411V211.651V211.889V212.128V212.366V212.603V212.841V213.077V213.313V213.549V213.784V214.019V214.253V214.487V214.72V214.952V215.185V215.416V215.647V215.878V216.108V216.338V216.567V216.795V217.023V217.251V217.477V217.704V217.929V218.155V218.379V218.603V218.827V219.049V219.272V219.493V219.714V219.935V220.155V220.374V220.592V220.81V221.028V221.245V221.461V221.676V221.891V222.105V222.319V222.532V222.744V222.955V223.166V223.377V223.586V223.795V224.003V224.211V224.417V224.623V224.829V225.034V225.237V225.441V225.643V225.845V226.046V226.246V226.446V226.904V227.36V227.811V228.259V228.704V229.146V229.584V230.019V230.451V230.879V231.304V231.726V232.144V232.559V232.971V233.38V233.785V234.188V234.587V234.982V235.375V235.765V236.151V236.534V236.914V237.291V237.665V238.036V238.403V238.768V239.13V239.488V239.844V240.196V240.545V240.892V241.235V241.576V241.913V242.248V242.579V242.908V243.233V243.556V243.876V244.193V244.507V244.818V245.127V245.432V245.735V246.035V246.332V246.626V246.918V247.207V247.493V247.776V248.056V248.334V248.609V248.882V249.151V249.418V249.683V249.944V250.203V250.46V250.714V250.965V251.213V251.459V251.703V251.944V252.182V252.418V252.651V252.882V253.11V253.336V253.559V253.78V253.998V254.214V254.427V254.638V254.847V255.053V255.257V255.458V255.657V255.854V256.048V256.24V256.43V256.618V256.803V256.986V257.166V257.344V257.52V257.694V257.866V258.035V258.202V258.367V258.53V258.691V258.849V259.006V259.16V259.312V259.462V259.61V259.756V259.899V260.041V260.181V260.318V260.454V260.587V260.719V260.848V260.976V261.101V261.225V261.296V261.296V261.297V261.298V261.3V261.3V261.303V261.304V261.307V261.308V261.313V261.319V261.326V261.327V261.334V261.335V261.343V261.345V261.347V261.353V261.356V261.363V261.368V261.374V261.381V261.386V261.395V261.399V261.41V261.413V261.426V261.428V261.443V261.444V261.459V261.462V261.466V261.476V261.482V261.493V261.503V261.511V261.525V261.53V261.549V261.55V261.57V261.573V261.584V261.591V261.599V261.613V261.626V261.635V261.655V261.658V261.682V261.684V261.7V261.706V261.715V261.731V261.748V261.757V261.781V261.783V261.809V261.814V261.816V261.836V261.852V261.864V261.89V261.892V261.921V261.926V261.929V261.95V261.969V261.98V262.011V262.036V262.041V262.054V262.073V262.098V262.104V262.136V262.144V262.145V262.169V262.191V262.202V262.235V262.24V262.251V262.269V262.29V262.303V262.338V262.341V262.356V262.373V262.395V262.408V262.444V262.449V262.459V262.48V262.505V262.516V262.553V262.56V262.563V262.59V262.622V262.627V262.659V262.664V262.682V262.702V262.74V262.744V262.756V262.778V262.808V262.817V262.852V262.855V262.873V262.894V262.933V262.94V262.946V262.972V263.008V263.012V263.038V263.051V263.078V263.091V263.128V263.131V263.15V263.171V263.211V263.217V263.223V263.251V263.291V263.298V263.304V263.331V263.372V263.374V263.389V263.412V263.453V263.472V263.493V263.532V263.534V263.554V263.574V263.614V263.615V263.634V263.655V263.696V263.697V263.713V263.736V263.776V263.782V263.789V263.817V263.857V263.864V263.868V263.897V263.937V263.938V263.957V263.977V264.01V264.017V264.047V264.056V264.08V264.096V264.135V264.139V264.149V264.174V264.213V264.216V264.232V264.252V264.281V264.291V264.327V264.329V264.345V264.367V264.405V264.408V264.425V264.443V264.468V264.48V264.517V264.523V264.528V264.554V264.586V264.591V264.624V264.627V264.642V264.663V264.697V264.699V264.727V264.734V264.75V264.769V264.802V264.803V264.831V264.837V264.852V264.871V264.901V264.904V264.937V264.949V264.97V264.995V265.002V265.034V265.039V265.045V265.065V265.083V265.095V265.124V265.126V265.155V265.155V265.165V265.185V265.204V265.213V265.241V265.242V265.267V265.269V265.278V265.296V265.313V265.323V265.347V265.349V265.374V265.38V265.381V265.399V265.411V265.423V265.441V265.446V265.469V265.491V265.496V265.497V265.513V265.523V265.534V265.548V265.554V265.571V265.574V265.592V265.594V265.611V265.614V265.615V265.628V265.635V265.645V265.654V265.66V265.672V265.676V265.688V265.69V265.703V265.716V265.718V265.728V265.731V265.733V265.739V265.743V265.75V265.754V265.759V265.764V265.768V265.772V265.776V265.78V265.783V265.787V265.788V265.792V265.794V265.797V265.798V265.8V265.801V265.803V265.803V265.805V265.805V265.854V265.978V266.103V266.23V266.359V266.49V266.623V266.759V266.896V267.035V267.176V267.32V267.465V267.613V267.762V267.914V268.068V268.224V268.382V268.542V268.705V268.869V269.036V269.205V269.376V269.55V269.725V269.903V270.083V270.266V270.45V270.637V270.827V271.018V271.212V271.409V271.607V271.808V272.012V272.218V272.426V272.636V272.849V273.065V273.283V273.503V273.726V273.951V274.179V274.409V274.642L194.5 274.873C194.5 274.874 194.5 274.875 194.5 274.875C194.323 298.384 194.343 300.056 194.396 304.335C194.438 307.72 194.5 312.738 194.5 331.5V331.667V331.833V331.998V332.162V332.326V332.49V332.652V332.814V332.975V333.135V333.295V333.454V333.613V333.771V333.928V334.084V334.24V334.395V334.55V334.704V334.857V335.01V335.162V335.313V335.464V335.614V335.763V335.912V336.061V336.208V336.355V336.502V336.647V336.793V336.937V337.081V337.224V337.367V337.509V337.651V337.792V337.932V338.072V338.212V338.35V338.488V338.626V338.763V338.899V339.035V339.171V339.305V339.439V339.573V339.706V339.839V339.971V340.102V340.233V340.364V340.493V340.623V340.752V340.88V341.008V341.135V341.262V341.388V341.514V341.639V341.764V341.888V342.012V342.135V342.257V342.38V342.501V342.623V342.744V342.864V342.984V343.103V343.222V343.34V343.458V343.576V343.693V343.81V343.926V344.042V344.157V344.272V344.386V344.5V344.613V344.726V344.839V344.951V345.063V345.174V345.285V345.396V345.506V345.616V345.725V345.834V345.942V346.051V346.158V346.266V346.372V346.479V346.585V346.691V346.796V346.901V347.006V347.11V347.214V347.317V347.421V347.523V347.626V347.728V347.83V347.931V348.032V348.133V348.233V348.333V348.433V348.532V348.631V348.73V348.828V348.926V349.024V349.121V349.219V349.315V349.412V349.508V349.604V349.7V349.795V349.89V349.985V350.079V350.173V350.267V350.361V350.454V350.547V350.64V350.732V350.824V350.916V351.008V351.099V351.191V351.281V351.372V351.463V351.553V351.643V351.732V351.822V351.911V352V352.089V352.178V352.266V352.354V352.442V352.53V352.617V352.705V352.792V352.879V352.965V353.052V353.138V353.224V353.31V353.396V353.481V353.567V353.652V353.737V353.822V353.907V353.991V354.076V354.16V354.244V354.328V354.412V354.495V354.579V354.662V354.745V354.828V354.911V354.994V355.077V355.159V355.241V355.324V355.406V355.488V355.57V355.652V355.733V355.815V355.897V355.978V356.059V356.141V356.222V356.303V356.384V356.465V356.546V356.626V356.707V356.788V356.868V356.949V357.029V357.109V357.19V357.27V357.35V357.43V357.51V357.591V357.671V357.751V357.831V357.91V357.99V358.07V358.15V358.23V358.31V358.39V358.469V358.549V358.629V358.709V358.788V358.868V358.948V359.028V359.108V359.188V359.267V359.347V359.427V359.507V359.587V359.667V359.747V359.827V359.907V359.987V360.067V360.148V360.228V360.308V360.389V360.469V360.549V360.63V360.711V360.791V360.872V360.953V361.034V361.115V361.196V361.277V361.358V361.44V361.521V361.603V361.684V361.766V361.848V361.93V362.012V362.094V362.177V362.259V362.342V362.424V362.507V362.59V362.673V362.756V362.84V362.923V363.007V363.091V363.175V363.259V363.343V363.428V363.512V363.597V363.682V363.767V363.852V363.938V364.023V364.109V364.195V364.281V364.368V364.454V364.541V364.628V364.715V364.802V364.89V364.978V365.066V365.154V365.242V365.331V365.42V365.509V365.598V365.688V365.778V365.868V365.958V366.048V366.139V366.23V366.321V366.413V366.505V366.597V366.689V366.782V366.874V366.967V367.061V367.155V367.248V367.343V367.437V367.532V367.627V367.722V367.818V367.914V368.01V368.107V368.204V368.301V368.398V368.496V368.594V368.693V368.792V368.891V368.99V369.09V369.19V369.291V369.391V369.493V369.594V369.696V369.798V369.901V370.003V370.107V370.21V370.314V370.419V370.523V370.629V370.734V370.84V370.946V371.053V371.16V371.267V371.375V371.483V371.592V371.701V371.81V371.92V372.03V372.141V372.252V372.364V372.475V372.588V372.701V372.814V372.927V373.041V373.156V373.271V373.386V373.502V373.618V373.735V373.852V373.97V374.088V374.207V374.326V374.445V374.565V374.686V374.807V374.928V375.05V375.172V375.295V375.418V375.542V375.667V375.792V375.917V376.043V376.169V376.296V376.424V376.551V376.68V376.809V376.938V377.068V377.199V377.33V377.462V377.594V377.727V377.86V377.994V378.128V378.263V378.398V378.534V378.671V378.808V378.946V379.084V379.223V379.362V379.502V379.643V379.784V379.926V380.068V380.211V380.355V380.499V380.644V380.789V380.935V381.082V381.229V381.376V381.525V381.674V381.824V381.974V382.125V382.276V382.428V382.581V382.735V382.889V383.044V383.199V383.355V383.512V383.669V383.827V383.986V384.145V384.305V384.466V384.627V384.789V384.952V385.115V385.279V385.444V385.61V385.776V385.943V386.11V386.278V386.447V386.617V386.787V386.958V387.13V387.303V387.476V387.65V387.825V388V427.25L194.5 438.484V441.471V442.24V442.434V442.484V442.496V442.499V442.5Z" stroke="url(#paint0_linear_28_2238)"/>
<defs>
<linearGradient id="paint0_linear_28_2238" x1="97.5632" y1="0.877197" x2="97.5632" y2="504.5" gradientUnits="userSpaceOnUse">
<stop stop-color="#FACD30"/>
<stop offset="0.624557" stop-color="#FFD365" stop-opacity="0"/>
</linearGradient>
</defs>
</svg>
