<svg width="391" height="443" viewBox="0 0 391 443" fill="none" xmlns="http://www.w3.org/2000/svg">
<path d="M73.6488 442.486L73.7262 442.5H73.7313H73.7418H73.7532H73.7657H73.7791H73.7934H73.8087H73.825H73.8423H73.8605H73.8796H73.8997H73.9208H73.9428H73.9657H73.9896H74.0144H74.0401H74.0668H74.0944H74.1229H74.1523H74.1826H74.2139H74.2461H74.2791H74.3131H74.348H74.3838H74.4204H74.4579H74.4964H74.5357H74.5759H74.6169H74.6589H74.7017H74.7454H74.7899H74.8353H74.8816H74.9287H74.9767H75.0255H75.0752H75.1257H75.177H75.2292H75.2822H75.336H75.3907H75.4462H75.5024H75.5596H75.6175H75.6762H75.7358H75.7961H75.8573H75.9192H75.982H76.0455H76.1098H76.1749H76.2408H76.3075H76.3749H76.4431H76.5121H76.5818H76.6523H76.7236H76.7956H76.8683H76.9419H77.0161H77.0911H77.1669H77.2433H77.3206H77.3985H77.4772H77.5565H77.6367H77.7175H77.799H77.8813H77.9643H78.0479H78.1323H78.2173H78.3031H78.3896H78.4767H78.5645H78.653H78.7422H78.8321H78.9226H79.0138H79.1057H79.1982H79.2914H79.3853H79.4798H79.5749H79.6707H79.7672H79.8642H79.962H80.0603H80.1593H80.2589H80.3592H80.46H80.5615H80.6636H80.7663H80.8696H80.9735H81.0781H81.1832H81.2889H81.3952H81.5021H81.6096H81.7177H81.8263H81.9355H82.0453H82.1557H82.2667H82.3782H82.4902H82.6028H82.716H82.8297H82.944H83.0589H83.1742H83.2901H83.4066H83.5235H83.641H83.7591H83.8776H83.9967H84.1162H84.2364H84.357H84.4781H84.5997H84.7218H84.8444H84.9675H85.0911H85.2152H85.3398H85.4648H85.5904H85.7164H85.8429H85.9698H86.0972H86.2251H86.3534H86.4822H86.6115H86.7411H86.8713H87.0019H87.1329H87.2643H87.3962H87.5286H87.6613H87.7945H87.9281H88.0621H88.1965H88.3314H88.4666H88.6022H88.7383H88.8748H89.0116H89.1488H89.2864H89.4245H89.5629H89.7016H89.8408H89.9803H90.1202H90.2605H90.4011H90.5421H90.6834H90.8251H90.9671H91.1095H91.2523H91.3954H91.5388H91.6825H91.8266H91.971H92.1158H92.2608H92.4062H92.5519H92.6979H92.8442H92.9908H93.1377H93.2849H93.4325H93.5803H93.7284H93.8768H94.0255H94.1744H94.3236H94.4731H94.6229H94.7729H94.9233H95.0738H95.2247H95.3757H95.5271H95.6787H95.8305H95.9826H96.1349H96.2874H96.4402H96.5932H96.7465H96.8999H97.0536H97.2075H97.3616H97.5159H97.6704H97.8252H97.9801H98.1353H98.2906H98.4461H98.6018H98.7577H98.9138H99.07H99.2264H99.383H99.5398H99.6967H99.8538H100.011H100.168H100.326H100.484H100.642H100.8H100.958H101.116H101.274H101.433H101.592H101.75H101.909H102.068H102.228H102.387H102.546H102.706H102.865H103.025H103.185H103.345H103.505H103.665H103.825H103.985H104.145H104.306H104.466H104.627H104.787H104.948H105.108H105.269H105.43H105.591H105.752H105.913H106.073H106.234H106.395H106.557H106.718H106.879H107.04H107.201H107.362H107.523H107.684H107.846H108.007H108.168H108.329H108.49H108.651H108.812H108.974H109.135H109.296H109.457H109.618H109.779H109.94H110.101H110.261H110.422H110.583H110.744H110.904H111.065H111.225H111.386H111.546H111.706H111.867H112.027H112.187H112.347H112.507H112.666H112.826H112.986H113.145H113.305H113.464H113.623H113.782H113.941H114.1H114.259H114.417H114.576H114.734H114.892H115.05H115.208H115.366H115.523H115.681H115.838H115.995H116.152H116.309H116.465H116.622H116.778H116.934H117.09H117.246H117.401H117.557H117.712H117.867H118.022H118.176H118.33H118.485H118.639H118.792H118.946H119.099H119.252H119.405H119.557H119.71H119.862H120.014H120.165H120.317H120.468H120.619H120.769H120.92H121.07H121.219H121.369H121.518H121.667H121.816H121.964H122.113H122.26H122.408H122.555H122.702H122.849H122.995H123.141H123.287H123.432H123.577H123.722H123.867H124.011H124.155H124.298H124.441H124.584H124.726H124.868H125.01H125.152H125.293H125.433H125.574H125.714H125.853H125.992H126.131H126.27H126.408H126.545H126.683H126.819H126.956H127.092H127.228H127.363H127.498H127.632H127.766H127.9H128.033H128.166H128.298H128.43H128.562H128.693H128.824H128.954H129.084H129.213H129.342H129.47H129.598H129.726H129.853H129.979H130.105H130.231H130.356H130.48H130.605H130.728H130.851H130.974H131.096H131.218H131.339H131.46H131.58H131.7H131.819H131.937H132.055H132.173H132.29H132.407H132.522H132.638H132.753H132.867H132.981H133.094H133.207H133.319H133.431H133.542H133.652H133.762H133.871H133.98H134.088H134.196H134.303H134.409H134.515H134.62H134.725H134.829H134.932H135.035H135.137H135.238H135.756H136.27H136.781H137.289H137.794H138.296H138.794H139.29H139.783H140.272H140.759H141.243H141.723H142.201H142.676H143.148H143.616H144.082H144.545H145.005H145.463H145.917H146.368H146.817H147.263H147.706H148.146H148.584H149.018H149.45H149.879H150.306H150.729H151.15H151.568H151.984H152.397H152.807H153.214H153.619H154.022H154.421H154.818H155.213H155.605H155.994H156.381H156.765H157.147H157.526H157.903H158.277H158.649H159.018H159.385H159.749H160.112H160.471H160.828H161.183H161.536H161.886H162.234H162.579H162.922H163.263H163.601H163.938H164.272H164.603H164.933H165.26H165.585H165.908H166.229H166.547H166.863H167.178H167.49H167.799H168.107H168.413H168.717H169.018H169.318H169.615H169.91H170.204H170.495H170.784H171.072H171.357H171.641H171.922H172.202H172.479H172.755H173.029H173.301H173.571H173.839H174.106H174.37H174.633H174.894H175.153H175.411H175.666H175.92H176.172H176.423H176.671H176.918H177.164H177.407H177.649H177.889H178.128H178.365H178.601H178.834H179.067H179.297H179.527H179.754H179.98H180.205H180.428H180.649H180.869H181.088H181.305H181.521H181.735H181.948H182.159H182.369H182.578H182.785H182.991H183.195H183.399H183.601H183.801H184.001H184.199H184.395H184.591H184.785H184.978H185.17H185.361H185.55H185.739H185.926H186.112H186.297H186.48H186.663H186.845H187.025H187.204H187.383H187.56H187.736H187.911H188.086H188.259H188.431H188.602H188.773H188.942H189.111H189.278H189.445H189.61H189.775H189.939H190.102H190.265H190.426H190.587H190.747H190.906H191.064H191.221H191.378H191.534H191.689H191.844H191.998H192.151H192.304H192.455H192.607H192.757H192.907H193.057H193.205H193.353H193.501H193.648H193.795H193.941H194.086H194.231H194.375H194.519H194.663H194.806H194.948H195.091H195.232H195.374H195.515H195.655H195.795H195.935H196.075H196.214H196.353H196.491H196.63H196.768H196.906H197.043H197.18H197.317H197.454H197.591H197.727H197.863H198H198.136H198.271H198.407H198.543H198.678H198.814H198.949H199.084H199.219H199.355H199.49H199.625H199.76H199.896H200.031H200.166H200.301H200.437H200.572H200.708H200.844H200.98H201.116H201.252H201.388H201.524H201.661H201.798H201.935H202.072H202.21H202.348H202.486H202.624H202.762H202.901H203.041H203.18H203.32H203.46H203.601H203.742H203.883H204.025H204.167H204.31H204.453H204.597H204.741H204.885H205.03H205.175H205.322H205.468H205.615H205.763H205.911H206.06H206.209H206.359H206.51H206.661H206.813H206.966H207.119H207.273H207.428H207.583H207.739H207.896H208.053H208.212H208.371H208.531H208.691H208.853H209.015H209.179H209.343H209.508H209.673H209.84H210.008H210.176H210.346H210.516H210.687H210.86H211.033H211.207H211.383H211.559H211.736H211.915H212.094H212.275H212.456H212.639H212.823H213.008H213.194H213.381H213.57H213.759H213.95H214.142H214.335H214.53H214.725H214.922H215.121H215.32H215.521H215.723H215.926H216.131H216.337H216.544H216.753H216.963H217.175H217.388H217.602H217.818H218.035H218.254H218.474H218.696H218.919H219.144H219.37H219.598H219.827H220.058H220.29H220.524H220.76H220.997H221.236H221.476H221.718H221.962H222.208H222.455H222.704H222.954H223.207H223.461H223.716H223.974H224.233H224.494H224.757H225.022H225.289H225.557H225.827H226.1H226.374H226.649H226.927H227.207H227.489H227.772H228.058H228.346H228.635H228.927H229.22H229.516H229.813H230.113H230.415H230.719H231.025H231.333H231.643H231.955H232.269H232.586H232.904H233.225H233.548H233.874H234.201H234.531H234.863H235.197H235.533H235.872H236.213H236.557H236.902H237.25H237.601H237.953H238.308H238.666H239.026H239.388H239.752H240.12H240.489H240.861H241.236H241.613H241.992H242.374H242.759H243.146H243.535H243.927H244.322H244.719H245.119H245.522H245.927H246.335H246.745H247.158H247.574H247.993H248.414H248.838H249.264H249.694H250.126H250.561H250.999H251.439H251.882H252.328H252.777H253.229H253.684H254.141H254.602H255.065H255.531H256H256.472H256.947H257.425H257.906H258.39H258.877H259.367H259.86H260.356H260.855H261.357H261.862H262.371H262.882H263.396H263.914H264.435H264.959H265.486H266.016H266.55H267.086H267.626H268.169H268.716H269.265H269.818H270.374H270.934H271.496H272.062H272.632H273.205H273.781H274.36H274.943H275.529H276.119H276.501C285.39 433.38 294.454 424.518 303.394 415.779C325.838 393.836 347.495 372.663 363.617 350.093C386.165 318.528 397.816 284.317 385.511 241.603C373.052 198.358 333.616 182.054 287.092 171.097C275.471 168.36 263.422 165.96 251.257 163.556C250.699 163.445 250.142 163.335 249.584 163.225C237.969 160.93 226.261 158.617 214.744 155.99C190.607 150.486 167.272 143.6 147.316 132.597C114.934 114.742 96.6752 81.8413 81.548 53.3997C80.9956 52.3611 80.4474 51.3286 79.903 50.303C72.9791 37.2611 66.6537 25.3463 59.8157 16.4263C52.4418 6.80718 44.5531 0.779599 34.7893 0.513643C29.8612 0.379407 25.6619 1.23551 22.0746 3.08369C18.4883 4.93135 15.4832 7.78608 12.9662 11.6959C7.91946 19.5351 4.85718 31.579 3.03632 48.0951C0.220734 73.6341 0.389282 109.662 0.610352 156.913C0.67514 170.762 0.744446 185.575 0.744446 201.371C0.744446 232.517 0.669952 258.086 0.60849 279.186C0.476562 324.462 0.404602 349.159 1.25732 364.216C1.88181 375.242 3.00052 381.043 4.93243 385.95C5.90027 388.409 7.0769 390.655 8.51605 393.237C8.91623 393.955 9.33698 394.699 9.77884 395.481C10.923 397.505 12.2088 399.779 13.6459 402.495C22.213 418.684 37.2209 428.691 50.1319 434.655C56.5828 437.635 62.497 439.599 66.7979 440.818C68.9479 441.428 70.6937 441.851 71.9005 442.121C72.5039 442.256 72.9725 442.353 73.2894 442.416C73.3613 442.43 73.4255 442.443 73.4816 442.454C73.549 442.467 73.6049 442.477 73.6488 442.486Z" stroke="url(#paint0_linear_28_2233)"/>
<defs>
<linearGradient id="paint0_linear_28_2233" x1="195.5" y1="-8.75926e-06" x2="362" y2="306.5" gradientUnits="userSpaceOnUse">
<stop stop-color="#F9CC25"/>
<stop offset="1" stop-color="#FFD365" stop-opacity="0"/>
</linearGradient>
</defs>
</svg>
