<svg width="70" height="70" viewBox="0 0 70 70" fill="none" xmlns="http://www.w3.org/2000/svg">
<rect x="1" y="1" width="68" height="68" rx="34" fill="#22202A" stroke="url(#paint0_linear_501_13294)" stroke-width="2"/>
<path d="M46.5175 47.4351V43.5725M43.2162 34.9988H46.0175C46.2936 34.9988 46.5175 35.2226 46.5175 35.4988V43.5725M43.2162 34.9988V26.9988C43.2162 26.1703 42.5446 25.4988 41.7162 25.4988H25.7837M43.2162 34.9988L38.8937 34.9987M25.7837 25.4988V17.6875C25.7837 17.1352 25.336 16.6875 24.7837 16.6875H21.3662M25.7837 25.4988V29.2473M51.125 43.5725H46.5175" stroke="#F1F3F6" stroke-width="1.5" stroke-miterlimit="10" stroke-linecap="round"/>
<path d="M28.5625 52.74C35.1209 52.74 40.4375 47.4234 40.4375 40.865C40.4375 34.3066 35.1209 28.99 28.5625 28.99C22.0041 28.99 16.6875 34.3066 16.6875 40.865C16.6875 47.4234 22.0041 52.74 28.5625 52.74Z" stroke="#F1F3F6" stroke-width="1.5" stroke-miterlimit="10"/>
<path opacity="0.5" d="M28.5625 48.0613C32.5368 48.0613 35.7587 44.8395 35.7587 40.8651C35.7587 36.8907 32.5368 33.6688 28.5625 33.6688C24.5881 33.6688 21.3662 36.8907 21.3662 40.8651C21.3662 44.8395 24.5881 48.0613 28.5625 48.0613Z" stroke="#808080" stroke-miterlimit="10"/>
<path d="M46.5176 52.7401C47.9211 52.7401 49.0588 51.6023 49.0588 50.1988C49.0588 48.7953 47.9211 47.6576 46.5176 47.6576C45.1141 47.6576 43.9763 48.7953 43.9763 50.1988C43.9763 51.6023 45.1141 52.7401 46.5176 52.7401Z" stroke="#D1D1D6" stroke-miterlimit="10"/>
<defs>
<linearGradient id="paint0_linear_501_13294" x1="35" y1="0" x2="35" y2="70" gradientUnits="userSpaceOnUse">
<stop stop-color="#C4C9CD"/>
<stop offset="1" stop-color="#747376"/>
</linearGradient>
</defs>
</svg>
