<svg width="76" height="76" viewBox="0 0 76 76" fill="none" xmlns="http://www.w3.org/2000/svg">
<circle cx="38" cy="38" r="38" fill="#BFC3C7"/>
<circle cx="38" cy="38" r="35" fill="#6D3D60" fill-opacity="0.74"/>
<path d="M50.5175 50.4351V46.5725M47.2162 37.9988H50.0175C50.2936 37.9988 50.5175 38.2226 50.5175 38.4988V46.5725M47.2162 37.9988V29.9988C47.2162 29.1703 46.5446 28.4988 45.7162 28.4988H29.7837M47.2162 37.9988L42.8937 37.9987M29.7837 28.4988V20.6875C29.7837 20.1352 29.336 19.6875 28.7837 19.6875H25.3662M29.7837 28.4988V32.2473M55.125 46.5725H50.5175" stroke="#F1F3F6" stroke-width="1.5" stroke-miterlimit="10" stroke-linecap="round"/>
<path d="M32.5625 55.74C39.1209 55.74 44.4375 50.4233 44.4375 43.865C44.4375 37.3066 39.1209 31.99 32.5625 31.99C26.0041 31.99 20.6875 37.3066 20.6875 43.865C20.6875 50.4233 26.0041 55.74 32.5625 55.74Z" stroke="#F1F3F6" stroke-width="1.5" stroke-miterlimit="10"/>
<path opacity="0.5" d="M32.5625 51.0613C36.5368 51.0613 39.7587 47.8394 39.7587 43.865C39.7587 39.8907 36.5368 36.6688 32.5625 36.6688C28.5881 36.6688 25.3662 39.8907 25.3662 43.865C25.3662 47.8394 28.5881 51.0613 32.5625 51.0613Z" stroke="#808080" stroke-miterlimit="10"/>
<path d="M50.5175 55.7401C51.921 55.7401 53.0588 54.6023 53.0588 53.1988C53.0588 51.7953 51.921 50.6576 50.5175 50.6576C49.114 50.6576 47.9762 51.7953 47.9762 53.1988C47.9762 54.6023 49.114 55.7401 50.5175 55.7401Z" stroke="#D1D1D6" stroke-miterlimit="10"/>
</svg>
