<svg width="93" height="31" viewBox="0 0 93 31" fill="none" xmlns="http://www.w3.org/2000/svg">
<path d="M92.3811 27.9113C93 26.7013 93 25.1172 93 21.9491V14.7822C93 11.6141 93 10.0301 92.3811 8.82004C91.8368 7.75565 90.9681 6.89027 89.8997 6.34793C88.6851 5.73138 87.0951 5.73138 83.9151 5.73138L60.375 5.73138C55.5502 5.73138 50.9221 3.81942 47.5041 0.414212V0.414212C46.9497 -0.138073 46.0509 -0.13807 45.4966 0.414212V0.414212C42.0786 3.81942 37.4504 5.73138 32.6257 5.73138L9.0849 5.73138C5.90489 5.73138 4.31488 5.73138 3.10028 6.34793C2.03188 6.89027 1.16325 7.75565 0.618874 8.82004C1.38165e-06 10.0301 1.38165e-06 11.6141 1.38165e-06 14.7822V21.9491C1.38165e-06 25.1172 1.38165e-06 26.7013 0.618874 27.9113C1.16325 28.9757 2.03188 29.8411 3.10028 30.3834C4.31488 31 5.90489 31 9.0849 31L83.9151 31C87.0951 31 88.6851 31 89.8997 30.3834C90.9681 29.8411 91.8368 28.9757 92.3811 27.9113Z" fill="#ED4756"/>
<path d="M18.4931 18.852C18.4931 18.932 18.4211 19.076 18.2771 19.284C17.9411 19.74 17.4891 20.184 16.9211 20.616C16.3531 21.04 15.7291 21.252 15.0491 21.252C14.3291 21.252 13.7411 21.048 13.2851 20.64C12.8291 20.224 12.6011 19.612 12.6011 18.804C12.6011 18.252 12.6971 17.628 12.8891 16.932C13.0811 16.236 13.3051 15.632 13.5611 15.12C13.8251 14.6 14.1291 14.168 14.4731 13.824C14.8251 13.48 15.1771 13.308 15.5291 13.308C15.8731 13.308 16.1371 13.432 16.3211 13.68C16.5131 13.928 16.6091 14.236 16.6091 14.604C16.6091 14.74 16.5811 14.88 16.5251 15.024C16.4771 15.16 16.4211 15.276 16.3571 15.372C16.2931 15.468 16.2451 15.516 16.2131 15.516C16.1491 15.516 16.1171 15.48 16.1171 15.408C16.1171 15.384 16.1291 15.332 16.1531 15.252C16.1851 15.164 16.2011 15.092 16.2011 15.036C16.2011 14.836 16.1771 14.648 16.1291 14.472C16.0891 14.32 16.0091 14.196 15.8891 14.1C15.7691 13.996 15.6371 13.944 15.4931 13.944C14.9171 13.944 14.3771 14.5 13.8731 15.612C13.6731 16.06 13.5051 16.564 13.3691 17.124C13.2331 17.684 13.1651 18.224 13.1651 18.744C13.1651 19.104 13.2371 19.432 13.3811 19.728C13.5331 20.024 13.7451 20.26 14.0171 20.436C14.2971 20.612 14.6211 20.7 14.9891 20.7C15.5731 20.7 16.1011 20.56 16.5731 20.28C17.0531 20 17.5251 19.64 17.9891 19.2C18.0051 19.184 18.0611 19.096 18.1571 18.936C18.2531 18.768 18.3251 18.684 18.3731 18.684C18.4211 18.684 18.4531 18.696 18.4691 18.72C18.4851 18.744 18.4931 18.788 18.4931 18.852ZM19.7533 20.676C19.7533 20.756 19.7013 20.82 19.5973 20.868C19.4933 20.916 19.3773 20.94 19.2493 20.94C19.1533 20.94 19.0613 20.828 18.9733 20.604C18.8933 20.372 18.8533 20.024 18.8533 19.56C18.8613 18.656 18.8733 17.564 18.8893 16.284C18.9133 15.004 18.9333 14.04 18.9493 13.392C18.9573 13.16 18.9973 12.944 19.0693 12.744C19.1493 12.544 19.2853 12.444 19.4773 12.444C19.5413 12.444 19.5813 12.48 19.5973 12.552C19.6213 12.616 19.6333 12.744 19.6333 12.936C19.6333 12.944 19.6293 12.972 19.6213 13.02C19.6213 13.06 19.6213 13.136 19.6213 13.248C19.4773 15.352 19.4053 17.404 19.4053 19.404C19.4053 19.66 19.4613 19.932 19.5733 20.22C19.6933 20.508 19.7533 20.66 19.7533 20.676ZM21.5936 13.488C21.5936 13.608 21.4616 13.668 21.1976 13.668C21.0616 13.668 20.9216 13.612 20.7776 13.5C20.6416 13.388 20.5736 13.296 20.5736 13.224C20.5736 13.136 20.6136 13.052 20.6936 12.972C20.7816 12.892 20.8696 12.852 20.9576 12.852C20.9576 12.852 20.9856 12.864 21.0416 12.888C21.1056 12.904 21.1776 12.956 21.2576 13.044C21.3216 13.108 21.3936 13.192 21.4736 13.296C21.5536 13.4 21.5936 13.464 21.5936 13.488ZM21.8936 21.036C21.8936 21.116 21.8576 21.176 21.7856 21.216C21.7216 21.264 21.6456 21.284 21.5576 21.276C21.4456 21.268 21.3616 21.088 21.3056 20.736C21.2576 20.384 21.2056 19.716 21.1496 18.732C21.1176 18.084 21.0896 17.452 21.0656 16.836C21.0416 16.212 21.0256 15.732 21.0176 15.396C21.0176 15.308 21.0296 15.244 21.0536 15.204C21.0856 15.156 21.1416 15.132 21.2216 15.132C21.4056 15.132 21.5216 15.208 21.5696 15.36C21.6176 15.512 21.6416 15.804 21.6416 16.236L21.6296 17.652C21.6296 18.46 21.6536 19.108 21.7016 19.596C21.7016 19.62 21.7376 19.876 21.8096 20.364C21.8656 20.7 21.8936 20.924 21.8936 21.036ZM27.3409 21.084C27.3409 21.18 27.3009 21.26 27.2209 21.324C27.1409 21.396 27.0449 21.432 26.9329 21.432C26.8529 21.432 26.7849 21.412 26.7289 21.372C26.6729 21.34 26.6449 21.292 26.6449 21.228C26.6449 20.9 26.6689 20.392 26.7169 19.704C26.7649 18.968 26.7889 18.356 26.7889 17.868C26.7889 17.396 26.7729 17.012 26.7409 16.716C26.7169 16.412 26.6529 16.26 26.5489 16.26C26.2769 16.26 25.9769 16.6 25.6489 17.28C25.3289 17.952 24.9609 18.84 24.5449 19.944L24.3649 20.424C24.3329 20.504 24.2769 20.568 24.1969 20.616C24.1249 20.664 24.0489 20.688 23.9689 20.688C23.8729 20.688 23.8089 20.68 23.7769 20.664C23.7449 20.648 23.7249 20.6 23.7169 20.52L23.6209 19.536L23.4409 17.808C23.3849 17.12 23.3169 16.52 23.2369 16.008C23.2129 15.888 23.2009 15.796 23.2009 15.732C23.2009 15.612 23.2529 15.516 23.3569 15.444C23.4609 15.364 23.5809 15.324 23.7169 15.324C23.7969 15.324 23.8529 15.516 23.8849 15.9C23.9249 16.284 23.9649 16.904 24.0049 17.76L24.0529 18.396C24.1169 19.204 24.1529 19.716 24.1609 19.932C24.1849 19.884 24.2049 19.832 24.2209 19.776C24.2449 19.712 24.2729 19.644 24.3049 19.572C24.7369 18.452 25.1409 17.52 25.5169 16.776C25.9009 16.024 26.2689 15.648 26.6209 15.648C26.8689 15.648 27.0369 15.86 27.1249 16.284C27.2209 16.7 27.2809 17.236 27.3049 17.892C27.3289 18.62 27.3409 19.684 27.3409 21.084ZM29.3464 13.488C29.3464 13.608 29.2144 13.668 28.9504 13.668C28.8144 13.668 28.6744 13.612 28.5304 13.5C28.3944 13.388 28.3264 13.296 28.3264 13.224C28.3264 13.136 28.3664 13.052 28.4464 12.972C28.5344 12.892 28.6224 12.852 28.7104 12.852C28.7104 12.852 28.7384 12.864 28.7944 12.888C28.8584 12.904 28.9304 12.956 29.0104 13.044C29.0744 13.108 29.1464 13.192 29.2264 13.296C29.3064 13.4 29.3464 13.464 29.3464 13.488ZM29.6464 21.036C29.6464 21.116 29.6104 21.176 29.5384 21.216C29.4744 21.264 29.3984 21.284 29.3104 21.276C29.1984 21.268 29.1144 21.088 29.0584 20.736C29.0104 20.384 28.9584 19.716 28.9024 18.732C28.8704 18.084 28.8424 17.452 28.8184 16.836C28.7944 16.212 28.7784 15.732 28.7704 15.396C28.7704 15.308 28.7824 15.244 28.8064 15.204C28.8384 15.156 28.8944 15.132 28.9744 15.132C29.1584 15.132 29.2744 15.208 29.3224 15.36C29.3704 15.512 29.3944 15.804 29.3944 16.236L29.3824 17.652C29.3824 18.46 29.4064 19.108 29.4544 19.596C29.4544 19.62 29.4904 19.876 29.5624 20.364C29.6184 20.7 29.6464 20.924 29.6464 21.036ZM34.6137 18.36C34.6137 18.408 34.5297 18.556 34.3617 18.804C34.2017 19.052 34.0377 19.276 33.8697 19.476C33.4537 19.98 33.0777 20.368 32.7417 20.64C32.4137 20.912 32.0697 21.048 31.7097 21.048C31.4057 21.048 31.1537 20.916 30.9537 20.652C30.7617 20.388 30.6657 20.084 30.6657 19.74C30.6657 19.228 30.8017 18.58 31.0737 17.796C31.3457 17.012 31.6897 16.332 32.1057 15.756C32.5217 15.18 32.9377 14.892 33.3537 14.892C33.5297 14.892 33.6817 14.956 33.8097 15.084C33.8817 15.156 33.9497 15.252 34.0137 15.372C34.0777 15.492 34.1097 15.6 34.1097 15.696C34.1097 15.832 34.0897 15.992 34.0497 16.176C34.0177 16.352 33.9817 16.44 33.9417 16.44C33.8617 16.44 33.8097 16.396 33.7857 16.308C33.7617 16.22 33.7457 16.108 33.7377 15.972C33.7137 15.764 33.6897 15.628 33.6657 15.564C33.6417 15.492 33.6057 15.456 33.5577 15.456C33.1817 15.456 32.8177 15.72 32.4657 16.248C32.1137 16.768 31.8257 17.376 31.6017 18.072C31.3777 18.76 31.2657 19.292 31.2657 19.668C31.2657 20.196 31.4417 20.46 31.7937 20.46C32.0497 20.46 32.2817 20.396 32.4897 20.268C32.7057 20.14 32.9297 19.96 33.1617 19.728C33.5937 19.288 33.9297 18.908 34.1697 18.588C34.1857 18.564 34.2297 18.504 34.3017 18.408C34.3817 18.304 34.4377 18.252 34.4697 18.252C34.5657 18.252 34.6137 18.288 34.6137 18.36ZM40.2088 20.232C40.2168 20.288 40.2488 20.348 40.3048 20.412C40.3608 20.468 40.3888 20.516 40.3888 20.556C40.3888 20.652 40.3488 20.764 40.2688 20.892C40.1888 21.012 40.1088 21.072 40.0288 21.072C39.8928 21.072 39.7888 20.988 39.7168 20.82C39.6448 20.652 39.6088 20.456 39.6088 20.232C39.6088 20.04 39.6208 19.464 39.6448 18.504L39.6568 18.048C39.6568 17.864 39.6088 17.732 39.5128 17.652C39.1528 18.26 38.8168 18.788 38.5048 19.236C38.1928 19.684 37.7968 20.108 37.3168 20.508C36.8368 20.9 36.3328 21.096 35.8048 21.096C35.5488 21.096 35.3488 21.016 35.2048 20.856C35.0688 20.696 35.0008 20.488 35.0008 20.232C35.0008 19.912 35.1448 19.476 35.4328 18.924C35.7208 18.364 36.0888 17.8 36.5368 17.232C36.9848 16.656 37.4328 16.184 37.8808 15.816C38.1768 15.576 38.4128 15.416 38.5888 15.336C38.7648 15.248 38.9208 15.204 39.0568 15.204C39.1848 15.204 39.3168 15.244 39.4528 15.324C39.5888 15.404 39.7048 15.516 39.8008 15.66C39.8968 15.804 39.9448 15.968 39.9448 16.152C39.9448 16.4 39.8768 16.636 39.7408 16.86L39.9448 16.8C40.0328 16.8 40.0848 16.908 40.1008 17.124C40.1088 17.252 40.1168 17.512 40.1248 17.904C40.1408 18.296 40.1528 18.62 40.1608 18.876C40.1688 19.14 40.1768 19.396 40.1848 19.644C40.1928 19.892 40.2008 20.088 40.2088 20.232ZM35.9728 20.448C36.4048 20.448 36.8208 20.288 37.2208 19.968C37.6208 19.648 37.9768 19.268 38.2888 18.828C38.6088 18.38 38.9608 17.832 39.3448 17.184C39.4408 16.944 39.4888 16.684 39.4888 16.404C39.4888 16.236 39.4368 16.092 39.3328 15.972C39.2368 15.844 39.1048 15.78 38.9368 15.78C38.7368 15.78 38.4808 15.916 38.1688 16.188C37.8088 16.492 37.4288 16.9 37.0288 17.412C36.6288 17.916 36.2968 18.416 36.0328 18.912C35.7688 19.408 35.6368 19.8 35.6368 20.088C35.6368 20.328 35.7488 20.448 35.9728 20.448ZM42.5663 20.676C42.5663 20.756 42.5143 20.82 42.4103 20.868C42.3063 20.916 42.1903 20.94 42.0623 20.94C41.9663 20.94 41.8743 20.828 41.7863 20.604C41.7063 20.372 41.6663 20.024 41.6663 19.56C41.6743 18.656 41.6863 17.564 41.7023 16.284C41.7263 15.004 41.7463 14.04 41.7623 13.392C41.7703 13.16 41.8103 12.944 41.8823 12.744C41.9623 12.544 42.0983 12.444 42.2903 12.444C42.3543 12.444 42.3943 12.48 42.4103 12.552C42.4343 12.616 42.4463 12.744 42.4463 12.936C42.4463 12.944 42.4423 12.972 42.4343 13.02C42.4343 13.06 42.4343 13.136 42.4343 13.248C42.2903 15.352 42.2183 17.404 42.2183 19.404C42.2183 19.66 42.2743 19.932 42.3863 20.22C42.5063 20.508 42.5663 20.66 42.5663 20.676ZM53.7819 17.736C53.7819 17.864 53.6899 17.956 53.5059 18.012C53.3619 18.06 53.1859 18.092 52.9779 18.108C52.7779 18.116 52.6459 18.12 52.5819 18.12C52.5739 18.368 52.5579 18.644 52.5339 18.948C52.5099 19.252 52.4899 19.504 52.4739 19.704L52.4379 20.076L52.4139 20.46L52.3419 21.384C52.3099 21.792 52.1779 21.996 51.9459 21.996C51.8579 21.996 51.7699 21.892 51.6819 21.684C51.6019 21.484 51.5619 21.32 51.5619 21.192C51.5619 21.16 51.5939 21.096 51.6579 21C51.7219 20.904 51.7619 20.784 51.7779 20.64C51.8099 20.416 51.8459 20.044 51.8859 19.524C51.9259 19.004 51.9539 18.568 51.9699 18.216C51.6579 18.24 51.3219 18.276 50.9619 18.324C50.8019 18.34 50.4419 18.376 49.8819 18.432C49.3219 18.488 48.8819 18.524 48.5619 18.54C48.5299 19.068 48.4939 19.712 48.4539 20.472C48.4139 21.232 48.3939 21.696 48.3939 21.864C48.3939 21.928 48.4019 22.012 48.4179 22.116C48.4419 22.22 48.4539 22.3 48.4539 22.356C48.4539 22.428 48.3979 22.5 48.2859 22.572C48.1819 22.644 48.0979 22.68 48.0339 22.68C47.9539 22.68 47.8859 22.628 47.8299 22.524C47.7819 22.42 47.7579 22.3 47.7579 22.164C47.7579 22.092 47.7659 21.972 47.7819 21.804C47.7979 21.644 47.8099 21.504 47.8179 21.384C47.8499 21.168 47.8699 20.992 47.8779 20.856C47.9179 20.384 47.9499 19.928 47.9739 19.488C47.9979 19.048 48.0139 18.752 48.0219 18.6C47.5179 18.688 47.0419 18.732 46.5939 18.732C46.4419 18.732 46.3139 18.696 46.2099 18.624C46.0979 18.544 46.0419 18.432 46.0419 18.288C46.0419 18.184 46.0699 18.108 46.1259 18.06C46.1739 18.004 46.2779 17.976 46.4379 17.976L47.0739 17.988C47.4899 18.004 47.8259 18.012 48.0819 18.012C48.1219 17.332 48.1419 16.788 48.1419 16.38C48.1419 15.452 48.1339 14.62 48.1179 13.884V13.44C48.1179 13.32 48.1619 13.224 48.2499 13.152C48.3459 13.072 48.4539 13.032 48.5739 13.032C48.6619 13.032 48.7219 13.1 48.7539 13.236C48.7859 13.372 48.8019 13.524 48.8019 13.692C48.8019 13.868 48.7819 14.228 48.7419 14.772C48.6939 15.7 48.6699 16.192 48.6699 16.248L48.6099 17.964C49.2819 17.948 50.4219 17.844 52.0299 17.652C52.0619 17.42 52.1179 16.812 52.1979 15.828C52.2299 15.308 52.2579 14.928 52.2819 14.688L52.3539 13.752C52.4579 12.576 52.5099 11.84 52.5099 11.544C52.5099 11.44 52.5499 11.356 52.6299 11.292C52.7099 11.228 52.8019 11.196 52.9059 11.196C53.0499 11.196 53.1219 11.336 53.1219 11.616C53.1219 11.792 53.0819 12.26 53.0019 13.02C52.9139 14.012 52.8659 14.564 52.8579 14.676C52.8099 15.292 52.7619 15.88 52.7139 16.44C52.6739 17 52.6459 17.376 52.6299 17.568C52.7739 17.544 52.9019 17.508 53.0139 17.46C53.1579 17.412 53.2699 17.388 53.3499 17.388C53.4299 17.388 53.5219 17.436 53.6259 17.532C53.7299 17.628 53.7819 17.696 53.7819 17.736ZM55.6751 13.488C55.6751 13.608 55.5431 13.668 55.2791 13.668C55.1431 13.668 55.0031 13.612 54.8591 13.5C54.7231 13.388 54.6551 13.296 54.6551 13.224C54.6551 13.136 54.6951 13.052 54.7751 12.972C54.8631 12.892 54.9511 12.852 55.0391 12.852C55.0391 12.852 55.0671 12.864 55.1231 12.888C55.1871 12.904 55.2591 12.956 55.3391 13.044C55.4031 13.108 55.4751 13.192 55.5551 13.296C55.6351 13.4 55.6751 13.464 55.6751 13.488ZM55.9751 21.036C55.9751 21.116 55.9391 21.176 55.8671 21.216C55.8031 21.264 55.7271 21.284 55.6391 21.276C55.5271 21.268 55.4431 21.088 55.3871 20.736C55.3391 20.384 55.2871 19.716 55.2311 18.732C55.1991 18.084 55.1711 17.452 55.1471 16.836C55.1231 16.212 55.1071 15.732 55.0991 15.396C55.0991 15.308 55.1111 15.244 55.1351 15.204C55.1671 15.156 55.2231 15.132 55.3031 15.132C55.4871 15.132 55.6031 15.208 55.6511 15.36C55.6991 15.512 55.7231 15.804 55.7231 16.236L55.7111 17.652C55.7111 18.46 55.7351 19.108 55.7831 19.596C55.7831 19.62 55.8191 19.876 55.8911 20.364C55.9471 20.7 55.9751 20.924 55.9751 21.036ZM61.6263 19.32C61.6263 19.672 61.4823 20.012 61.1943 20.34C60.9143 20.66 60.5423 20.916 60.0783 21.108C59.6143 21.308 59.1303 21.408 58.6263 21.408C58.2823 21.408 58.0503 21.376 57.9303 21.312C57.8103 21.248 57.7503 21.16 57.7503 21.048C57.7503 20.976 57.8423 20.852 58.0263 20.676C58.2103 20.492 58.3343 20.4 58.3983 20.4C58.4943 20.4 58.5423 20.42 58.5423 20.46C58.5423 20.492 58.5223 20.524 58.4823 20.556C58.4423 20.588 58.4223 20.616 58.4223 20.64C58.4223 20.672 58.4703 20.704 58.5663 20.736C58.6703 20.768 58.7943 20.784 58.9383 20.784C59.2743 20.784 59.6103 20.724 59.9463 20.604C60.2903 20.476 60.5703 20.312 60.7863 20.112C61.0023 19.912 61.1103 19.7 61.1103 19.476C61.1103 19.26 61.0423 19.088 60.9063 18.96C60.7703 18.832 60.5983 18.74 60.3903 18.684C60.1903 18.62 59.8503 18.532 59.3703 18.42C58.8423 18.3 58.4303 18.196 58.1343 18.108C57.8463 18.012 57.6143 17.896 57.4383 17.76C57.2623 17.616 57.1743 17.436 57.1743 17.22C57.1743 16.836 57.3623 16.484 57.7383 16.164C58.1143 15.844 58.5463 15.592 59.0343 15.408C59.5223 15.224 59.8983 15.132 60.1623 15.132C60.4343 15.132 60.5703 15.212 60.5703 15.372C60.5703 15.468 60.5383 15.576 60.4743 15.696C60.4103 15.808 60.3143 15.864 60.1863 15.864C60.1383 15.864 60.0863 15.848 60.0303 15.816C59.9743 15.776 59.9183 15.756 59.8623 15.756C59.7023 15.756 59.4503 15.808 59.1063 15.912C58.7623 16.016 58.4503 16.172 58.1703 16.38C57.8903 16.588 57.7503 16.84 57.7503 17.136C57.7503 17.328 57.8583 17.472 58.0743 17.568C58.2983 17.656 58.7103 17.768 59.3103 17.904C59.3823 17.928 59.4543 17.948 59.5263 17.964C59.5983 17.972 59.6623 17.984 59.7183 18C60.3343 18.144 60.8063 18.308 61.1343 18.492C61.4623 18.676 61.6263 18.952 61.6263 19.32ZM67.7761 16.032C67.7761 16.168 67.7161 16.272 67.5961 16.344C67.4841 16.416 67.2761 16.472 66.9721 16.512C66.2361 16.64 65.8241 16.712 65.7361 16.728L64.9561 16.86C64.9561 17.276 64.9601 17.712 64.9681 18.168C64.9841 18.624 65.0041 19.024 65.0281 19.368C65.0601 19.832 65.1161 20.188 65.1961 20.436C65.2761 20.684 65.3201 20.824 65.3281 20.856C65.3281 20.936 65.2761 21.008 65.1721 21.072C65.0761 21.144 64.9841 21.18 64.8961 21.18C64.8481 21.18 64.8081 21.164 64.7761 21.132C64.7441 21.108 64.7161 21.064 64.6921 21C64.6441 20.888 64.5961 20.68 64.5481 20.376C64.5081 20.072 64.4761 19.736 64.4521 19.368C64.4281 19.04 64.4081 18.66 64.3921 18.228C64.3841 17.788 64.3801 17.364 64.3801 16.956C63.9321 17.028 63.4721 17.116 63.0001 17.22C62.5761 17.308 62.3241 17.352 62.2441 17.352C62.1481 17.352 62.0561 17.324 61.9681 17.268C61.8881 17.212 61.8481 17.136 61.8481 17.04C61.8481 16.936 61.8841 16.868 61.9561 16.836C62.0281 16.804 62.1481 16.788 62.3161 16.788C62.4361 16.788 62.6121 16.768 62.8441 16.728C63.0761 16.68 63.2241 16.648 63.2881 16.632C63.8241 16.528 64.1881 16.46 64.3801 16.428C64.3801 16.26 64.3721 16.04 64.3561 15.768C64.3401 15.4 64.3321 15.12 64.3321 14.928C64.3321 14.616 64.3401 14.376 64.3561 14.208C64.3801 14.032 64.4201 13.876 64.4761 13.74C64.5401 13.58 64.6601 13.5 64.8361 13.5C64.9081 13.5 64.9561 13.512 64.9801 13.536C65.0041 13.56 65.0161 13.604 65.0161 13.668C65.0161 13.716 64.9961 13.856 64.9561 14.088C64.9161 14.32 64.8961 14.628 64.8961 15.012C64.8961 15.308 64.9041 15.64 64.9201 16.008L64.9321 16.332C65.2921 16.276 66.0041 16.128 67.0681 15.888C67.1321 15.872 67.1841 15.816 67.2241 15.72C67.2721 15.624 67.3201 15.576 67.3681 15.576C67.4561 15.576 67.5441 15.628 67.6321 15.732C67.7281 15.828 67.7761 15.928 67.7761 16.032ZM72.3637 18.516C72.3637 18.828 72.2477 19.188 72.0157 19.596C71.7837 20.004 71.4557 20.356 71.0317 20.652C70.6077 20.94 70.1237 21.084 69.5797 21.084C69.0437 21.084 68.6477 20.936 68.3917 20.64C68.1357 20.344 68.0077 19.976 68.0077 19.536C68.0077 19.152 68.0757 18.676 68.2117 18.108C68.3557 17.54 68.5557 17.032 68.8117 16.584C68.8277 16.552 68.8917 16.436 69.0037 16.236C69.1237 16.028 69.2557 15.872 69.3997 15.768C69.5437 15.656 69.6957 15.6 69.8557 15.6C69.9277 15.6 69.9917 15.62 70.0477 15.66C70.1117 15.692 70.1437 15.736 70.1437 15.792C70.1437 15.808 70.1197 15.848 70.0717 15.912C70.0317 15.968 69.9997 16.012 69.9757 16.044C69.7037 16.372 69.4837 16.696 69.3157 17.016C69.0917 17.424 68.9157 17.828 68.7877 18.228C68.6677 18.628 68.6077 19.064 68.6077 19.536C68.6077 20.168 68.9917 20.484 69.7597 20.484C70.1197 20.484 70.4517 20.38 70.7557 20.172C71.0677 19.964 71.3157 19.712 71.4997 19.416C71.6837 19.112 71.7757 18.836 71.7757 18.588C71.7757 18.308 71.6837 18.064 71.4997 17.856C71.3157 17.648 71.0637 17.428 70.7437 17.196C70.5357 17.044 70.3837 16.92 70.2877 16.824C70.1917 16.728 70.1437 16.648 70.1437 16.584C70.1437 16.488 70.2117 16.412 70.3477 16.356C70.4837 16.292 70.6437 16.26 70.8277 16.26C70.9317 16.26 70.9997 16.268 71.0317 16.284C71.0637 16.292 71.0797 16.312 71.0797 16.344C71.0797 16.36 71.0637 16.388 71.0317 16.428C71.0077 16.46 70.9957 16.488 70.9957 16.512C70.9957 16.536 71.0757 16.616 71.2357 16.752C71.5557 17.016 71.8237 17.284 72.0397 17.556C72.2557 17.828 72.3637 18.148 72.3637 18.516ZM77.2585 15.948C77.2585 16.02 77.2065 16.104 77.1025 16.2C77.0065 16.288 76.9225 16.332 76.8505 16.332C76.7945 16.332 76.7385 16.308 76.6825 16.26C76.6345 16.212 76.5785 16.144 76.5145 16.056C76.4585 15.976 76.3825 15.908 76.2865 15.852C76.1985 15.796 76.1065 15.768 76.0105 15.768C75.7785 15.768 75.4665 16.076 75.0745 16.692C74.6825 17.3 74.2985 18.068 73.9225 18.996C73.9305 19.18 73.9425 19.412 73.9585 19.692C73.9825 19.972 73.9985 20.18 74.0065 20.316L74.0425 20.796C74.0425 20.908 74.0185 21.004 73.9705 21.084C73.9225 21.172 73.8345 21.216 73.7065 21.216C73.5705 21.216 73.4825 21.036 73.4425 20.676C73.4025 20.308 73.3785 19.776 73.3705 19.08C73.3625 18.904 73.3545 18.652 73.3465 18.324C73.3465 17.996 73.3385 17.604 73.3225 17.148C73.2985 16.46 73.2865 15.968 73.2865 15.672C73.2865 15.488 73.3985 15.396 73.6225 15.396C73.7585 15.396 73.8385 15.456 73.8625 15.576C73.8945 15.688 73.9105 15.908 73.9105 16.236V18.144C74.1505 17.528 74.4105 16.996 74.6905 16.548C74.9705 16.1 75.2425 15.76 75.5065 15.528C75.7785 15.288 76.0185 15.168 76.2265 15.168C76.4025 15.168 76.5705 15.208 76.7305 15.288C76.8905 15.368 77.0185 15.472 77.1145 15.6C77.2105 15.72 77.2585 15.836 77.2585 15.948ZM81.8933 15.696C81.8933 15.88 81.8493 16.28 81.7613 16.896C81.6653 17.6 81.6133 17.996 81.6053 18.084C81.5013 19.068 81.4253 19.82 81.3773 20.34C81.3373 20.852 81.3173 21.316 81.3173 21.732C81.3173 22.076 81.3413 22.348 81.3893 22.548C81.4453 22.748 81.5013 22.904 81.5573 23.016C81.6213 23.136 81.6533 23.208 81.6533 23.232C81.6533 23.304 81.5893 23.368 81.4613 23.424C81.3333 23.48 81.2013 23.508 81.0653 23.508C80.9613 23.508 80.8773 23.368 80.8133 23.088C80.7573 22.808 80.7293 22.372 80.7293 21.78C80.7293 21.332 80.7733 20.728 80.8613 19.968L81.0413 18.312C80.8253 18.728 80.5573 19.128 80.2373 19.512C79.9253 19.888 79.6013 20.076 79.2653 20.076C78.9533 20.076 78.6733 19.804 78.4253 19.26C78.1773 18.716 77.9813 18.1 77.8373 17.412C77.7013 16.724 77.6333 16.22 77.6333 15.9C77.6333 15.7 77.6933 15.6 77.8133 15.6C77.9893 15.6 78.1013 15.764 78.1493 16.092C78.4533 18.316 78.8773 19.428 79.4213 19.428C79.6373 19.428 79.8253 19.344 79.9853 19.176C80.1533 19 80.3493 18.732 80.5733 18.372C80.6773 18.204 80.7893 17.98 80.9093 17.7C81.0293 17.42 81.1213 17.188 81.1853 17.004L81.2693 15.792C81.2853 15.608 81.3093 15.48 81.3413 15.408C81.3733 15.328 81.4373 15.288 81.5333 15.288C81.6133 15.288 81.6933 15.336 81.7733 15.432C81.8533 15.52 81.8933 15.608 81.8933 15.696Z" fill="white"/>
</svg>
