<svg width="17" height="17" viewBox="0 0 17 17" fill="none" xmlns="http://www.w3.org/2000/svg">
<path fill-rule="evenodd" clip-rule="evenodd" d="M1.42462 16.2739C1.13173 15.981 1.13173 15.5061 1.42462 15.2132L7.78858 8.84924L1.42462 2.48528C1.13173 2.19239 1.13173 1.71752 1.42462 1.42462C1.71751 1.13173 2.19239 1.13173 2.48528 1.42462L8.84924 7.78858L15.2132 1.42462C15.5061 1.13173 15.981 1.13173 16.2739 1.42462C16.5668 1.71752 16.5668 2.19239 16.2739 2.48528L9.9099 8.84924L16.2739 15.2132C16.5668 15.5061 16.5668 15.981 16.2739 16.2739C15.981 16.5668 15.5061 16.5668 15.2132 16.2739L8.84924 9.9099L2.48528 16.2739C2.19239 16.5668 1.71751 16.5668 1.42462 16.2739Z" fill="#8E8F91"/>
<path d="M1.42462 15.2132L1.07107 14.8597L1.42462 15.2132ZM7.78858 8.84924L8.14214 9.2028C8.2359 9.10903 8.28858 8.98185 8.28858 8.84924C8.28858 8.71664 8.2359 8.58946 8.14214 8.49569L7.78858 8.84924ZM1.42462 2.48528L1.07107 2.83884L1.42462 2.48528ZM2.48528 1.42462L2.13173 1.77818L2.48528 1.42462ZM8.84924 7.78858L8.49569 8.14214C8.69095 8.3374 9.00753 8.3374 9.2028 8.14214L8.84924 7.78858ZM15.2132 1.42462L15.5668 1.77818L15.2132 1.42462ZM16.2739 2.48528L16.6274 2.83884L16.2739 2.48528ZM9.9099 8.84924L9.55635 8.49569C9.46258 8.58946 9.4099 8.71664 9.4099 8.84924C9.4099 8.98185 9.46258 9.10903 9.55635 9.2028L9.9099 8.84924ZM16.2739 15.2132L16.6274 14.8597L16.2739 15.2132ZM15.2132 16.2739L14.8597 16.6274L15.2132 16.2739ZM8.84924 9.9099L9.2028 9.55635C9.00753 9.36109 8.69095 9.36109 8.49569 9.55635L8.84924 9.9099ZM2.48528 16.2739L2.13173 15.9203L2.48528 16.2739ZM1.07107 14.8597C0.582912 15.3478 0.582913 16.1393 1.07107 16.6274L1.77817 15.9203C1.68054 15.8227 1.68054 15.6644 1.77817 15.5668L1.07107 14.8597ZM7.43503 8.49569L1.07107 14.8597L1.77817 15.5668L8.14214 9.2028L7.43503 8.49569ZM1.07107 2.83884L7.43503 9.2028L8.14214 8.49569L1.77817 2.13173L1.07107 2.83884ZM1.07107 1.07107C0.582911 1.55922 0.582911 2.35068 1.07107 2.83884L1.77817 2.13173C1.68054 2.0341 1.68054 1.87581 1.77817 1.77818L1.07107 1.07107ZM2.83883 1.07107C2.35068 0.582914 1.55922 0.582914 1.07107 1.07107L1.77817 1.77818C1.8758 1.68055 2.0341 1.68055 2.13173 1.77818L2.83883 1.07107ZM9.2028 7.43503L2.83883 1.07107L2.13173 1.77818L8.49569 8.14214L9.2028 7.43503ZM14.8596 1.07107L8.49569 7.43503L9.2028 8.14214L15.5668 1.77818L14.8596 1.07107ZM16.6274 1.07107C16.1393 0.582916 15.3478 0.582916 14.8596 1.07107L15.5668 1.77818C15.6644 1.68055 15.8227 1.68055 15.9203 1.77818L16.6274 1.07107ZM16.6274 2.83884C17.1156 2.35068 17.1156 1.55923 16.6274 1.07107L15.9203 1.77818C16.0179 1.87581 16.0179 2.0341 15.9203 2.13173L16.6274 2.83884ZM10.2635 9.2028L16.6274 2.83884L15.9203 2.13173L9.55635 8.49569L10.2635 9.2028ZM16.6274 14.8597L10.2635 8.49569L9.55635 9.2028L15.9203 15.5668L16.6274 14.8597ZM16.6274 16.6274C17.1156 16.1393 17.1156 15.3478 16.6274 14.8597L15.9203 15.5668C16.0179 15.6644 16.0179 15.8227 15.9203 15.9203L16.6274 16.6274ZM14.8597 16.6274C15.3478 17.1156 16.1393 17.1156 16.6274 16.6274L15.9203 15.9203C15.8227 16.0179 15.6644 16.0179 15.5668 15.9203L14.8597 16.6274ZM8.49569 10.2635L14.8597 16.6274L15.5668 15.9203L9.2028 9.55635L8.49569 10.2635ZM2.83883 16.6274L9.2028 10.2635L8.49569 9.55635L2.13173 15.9203L2.83883 16.6274ZM1.07107 16.6274C1.55922 17.1156 2.35068 17.1156 2.83883 16.6274L2.13173 15.9203C2.0341 16.0179 1.87581 16.0179 1.77817 15.9203L1.07107 16.6274Z" fill="#898989"/>
</svg>
