<svg width="35" height="35" viewBox="0 0 35 35" fill="none" xmlns="http://www.w3.org/2000/svg">
<circle cx="17.5" cy="17.5" r="17.5" fill="#F1F3F6"/>
<path d="M15.75 11.25H20.25M11.25 13.5H24.75M16.5 19.125V22.125M19.5 19.125V22.125M23.25 13.5L22.724 21.3895C22.6451 22.5732 22.6057 23.165 22.35 23.6138C22.1249 24.0088 21.7854 24.3265 21.3762 24.5248C20.9115 24.75 20.3183 24.75 19.132 24.75H16.868C15.6817 24.75 15.0885 24.75 14.6238 24.5248C14.2146 24.3265 13.8751 24.0088 13.65 23.6138C13.3943 23.165 13.3549 22.5732 13.276 21.3895L12.75 13.5H23.25Z" stroke="#7B7B7B" stroke-width="1.5" stroke-linecap="round" stroke-linejoin="round"/>
</svg>
