<svg width="26" height="40" viewBox="0 0 26 40" fill="none" xmlns="http://www.w3.org/2000/svg">
<path fill-rule="evenodd" clip-rule="evenodd" d="M13.6724 26.0059C13.6724 25.5917 13.3366 25.2559 12.9224 25.2559C12.5081 25.2559 12.1724 25.5917 12.1724 26.0059V32.3735H6.59412C6.1799 32.3735 5.84412 32.7093 5.84412 33.1235C5.84412 33.5377 6.1799 33.8735 6.59412 33.8735H12.1724V38.5588C12.1724 38.973 12.5081 39.3088 12.9224 39.3088C13.3366 39.3088 13.6724 38.973 13.6724 38.5588V33.8735H19.1471C19.5613 33.8735 19.8971 33.5377 19.8971 33.1235C19.8971 32.7093 19.5613 32.3735 19.1471 32.3735H13.6724V26.0059Z" fill="black"/>
<circle cx="13" cy="13" r="11.75" stroke="#848382" stroke-width="1.5"/>
</svg>
