<svg width="25" height="25" viewBox="0 0 25 25" fill="none" xmlns="http://www.w3.org/2000/svg">
<path d="M11.323 20.1246C13.71 20.1246 15.9991 19.1764 17.687 17.4886C19.3748 15.8008 20.323 13.5116 20.323 11.1246C20.323 8.73769 19.3748 6.4485 17.687 4.76067C15.9991 3.07285 13.71 2.12463 11.323 2.12463C8.93606 2.12463 6.64688 3.07285 4.95905 4.76067C3.27122 6.4485 2.32301 8.73769 2.32301 11.1246C2.32301 13.5116 3.27122 15.8008 4.95905 17.4886C6.64688 19.1764 8.93606 20.1246 11.323 20.1246V20.1246Z" stroke="#F5F5F5" stroke-width="1.5" stroke-linecap="round" stroke-linejoin="round"/>
<path opacity="0.4" d="M19.253 20.8136C19.783 22.4136 20.993 22.5737 21.923 21.1737C22.773 19.8937 22.213 18.8437 20.673 18.8437C19.533 18.8337 18.893 19.7236 19.253 20.8136Z" stroke="#F7F7F9" stroke-width="1.5" stroke-linecap="round" stroke-linejoin="round"/>
</svg>
