<svg width="46" height="46" viewBox="0 0 46 46" fill="none" xmlns="http://www.w3.org/2000/svg">
<path opacity="0.5" d="M19.01 32.317C19.01 41.8221 35.1685 42.7726 35.1685 32.317V24.713" stroke="#22202A"/>
<path opacity="0.5" d="M35.1685 21.8425H35.1871V21.8611H35.1685V21.8425Z" stroke="#22202A" stroke-linejoin="round"/>
<path d="M38.0201 21.8615C38.0201 23.4364 36.7434 24.713 35.1685 24.713C33.5937 24.713 32.317 23.4364 32.317 21.8615C32.317 20.2867 33.5937 19.01 35.1685 19.01C36.7434 19.01 38.0201 20.2867 38.0201 21.8615Z" stroke="#22202A" stroke-width="1.5"/>
<path d="M14.2575 9.50501V9.50501C12.6222 9.50501 11.8045 9.50501 11.1764 9.81526C10.5855 10.1071 10.1071 10.5855 9.81527 11.1764C9.50501 11.8045 9.50501 12.6222 9.50501 14.2575V22.812C9.50501 26.0828 9.50501 27.7181 10.1255 28.9743C10.7093 30.1561 11.666 31.1128 12.8477 31.6965C14.1039 32.317 15.7393 32.317 19.01 32.317V32.317C22.2808 32.317 23.9161 32.317 25.1723 31.6965C26.3541 31.1128 27.3108 30.1561 27.8945 28.9743C28.515 27.7181 28.515 26.0827 28.515 22.812V13.307C28.515 12.5616 28.515 12.1889 28.4492 11.8797C28.2024 10.722 27.298 9.81761 26.1403 9.57089C25.8311 9.50501 25.4584 9.50501 24.713 9.50501V9.50501M14.2575 9.50501C14.2575 10.5549 15.1086 11.406 16.1585 11.406C17.2084 11.406 18.0595 10.5549 18.0595 9.50501C18.0595 8.45511 17.2084 7.604 16.1585 7.604C15.1086 7.604 14.2575 8.45511 14.2575 9.50501ZM24.713 9.50501C24.713 10.5549 23.8619 11.406 22.812 11.406C21.7621 11.406 20.911 10.5549 20.911 9.50501C20.911 8.45511 21.7621 7.604 22.812 7.604C23.8619 7.604 24.713 8.45511 24.713 9.50501Z" stroke="#22202A"/>
</svg>
