<svg width="114" height="46" viewBox="0 0 114 46" fill="none" xmlns="http://www.w3.org/2000/svg">
<rect width="114" height="46" rx="23" fill="#8D99AE" fill-opacity="0.5"/>
<ellipse cx="23.0265" cy="23" rx="19.2517" ry="19.2295" fill="#EDF2F4"/>
<path d="M18.0407 23.3879C18.0185 25.4329 18.3653 26.4718 18.9401 27.046C19.5185 27.6237 20.5747 27.9789 22.6491 27.9789C24.7231 27.9789 25.7663 27.6238 26.3386 27.0483C26.9122 26.4717 27.2574 25.4288 27.2574 23.3771C27.2574 21.3253 26.9122 20.2825 26.3386 19.7058C25.7663 19.1303 24.7231 18.7752 22.6491 18.7752C20.5754 18.7752 19.5453 19.1302 18.9789 19.7035C18.4065 20.2827 18.063 21.3293 18.0407 23.3879Z" stroke="#8D99AE" stroke-width="2" stroke-linecap="round" stroke-linejoin="round"/>
<path d="M22.649 14.274V15.6745" stroke="#8D99AE" stroke-width="2" stroke-linecap="round"/>
<path d="M22.649 31.0797V32.4801" stroke="#8D99AE" stroke-width="2" stroke-linecap="round"/>
<path d="M31.7625 23.3771L30.3605 23.3771" stroke="#8D99AE" stroke-width="2" stroke-linecap="round"/>
<path d="M14.9376 23.3771L13.5355 23.3771" stroke="#8D99AE" stroke-width="2" stroke-linecap="round"/>
<path d="M15.6386 16.3748L16.63 17.365" stroke="#8D99AE" stroke-width="2" stroke-linecap="round"/>
<path d="M15.6386 30.6694L16.63 29.6791" stroke="#8D99AE" stroke-width="2" stroke-linecap="round"/>
<path d="M29.9497 16.3748L28.9583 17.365" stroke="#8D99AE" stroke-width="2" stroke-linecap="round"/>
<path d="M29.9497 30.6694L28.9583 29.6791" stroke="#8D99AE" stroke-width="2" stroke-linecap="round"/>
</svg>
