<svg width="1440" height="1513" viewBox="0 0 1440 1513" fill="none" xmlns="http://www.w3.org/2000/svg">
<rect width="1440" height="1513" fill="#F7F7F9"/>
<path d="M90 124C90 110.193 101.193 99 115 99H1323C1336.81 99 1348 110.193 1348 124V728H90V124Z" fill="white" fill-opacity="0.95"/>
<g filter="url(#filter0_d_1_833)">
<rect x="61" y="68" width="1317" height="1372" rx="38.694" fill="#F5EFEB" fill-opacity="0.16" shape-rendering="crispEdges"/>
<rect x="59.3357" y="66.3357" width="1320.33" height="1375.33" rx="40.3583" stroke="#DDDDDD" stroke-width="3.32852" shape-rendering="crispEdges"/>
</g>
<path d="M124.803 962.014C84.8447 960.925 90.2444 1024.05 90.2444 1163.37C90.2444 1359.29 87.2944 1334.66 103.204 1364.73C120.483 1397.38 163.681 1405 163.681 1405C163.681 1405 207.959 1405 225.238 1405C313.795 1405 265.197 1405 366.712 1405C429.119 1340.93 500.711 1289.27 475.991 1203.46C450.903 1116.38 317.132 1138.04 237.558 1094.16C173.09 1058.61 164.761 963.102 124.803 962.014Z" fill="#F8D0B2"/>
<path d="M1120.74 1026.99C1021.15 1073.69 964.508 1187.84 988.475 1295.65C1009.57 1390.55 1104.2 1407.29 1203.46 1404.77C1265.66 1403.18 1298.37 1407.88 1320.08 1401.02C1332.29 1395.78 1341.8 1384.81 1348 1365.48C1348 1270.69 1348 1261.96 1348 1106.69C1348 1007.73 1209.96 985.15 1120.74 1026.99Z" fill="#CD699B" fill-opacity="0.6"/>
<path d="M1348 525.946C1348 525.946 1348 592.446 1348 626.446C1348 704.979 1348 634.5 1348 674.877C1347.68 717 1348 689 1348 731.5C1348 760 1348 758 1348 788C1348 820 1348 842.5 1348 842.5C1348 842.5 1351.63 855.389 1319.96 871.5C1277.99 892.848 1289.42 902.5 1272.42 904.5C1240.38 899 1257.73 780.21 1236.48 754.642C1220.63 735.571 1187.38 722.53 1189.69 697.841C1192.86 663.988 1257 649.64 1249.4 616.502C1241.21 580.857 1175.27 590.509 1157.68 558.441C1144.4 534.22 1162.47 503.361 1173.43 478.003C1185.8 449.375 1195.12 394.425 1225.5 401.5C1274.88 412.997 1289.09 478.626 1325.87 513.501C1334.71 521.886 1348 525.946 1348 525.946Z" fill="#F79EA4" fill-opacity="0.6"/>
<path d="M90 122.334C90 252.036 90 206.303 90 311.264C90 438.717 90 357.747 90 497.945C90 605.155 90 557.173 90 625.398C90 660.635 167.146 599.114 248.966 570.668C362.291 531.269 510.399 542.862 553.979 431.703C596.959 322.078 456.156 259.721 393.617 159.82C354.83 97.8623 354.26 123.334 273.5 118C192.74 112.666 134.704 94.7468 111 99.5C97.043 102.299 90 112.945 90 122.334Z" fill="#5A4D9C" fill-opacity="0.6"/>
<defs>
<filter id="filter0_d_1_833" x="52.6715" y="63.6715" width="1333.66" height="1388.66" filterUnits="userSpaceOnUse" color-interpolation-filters="sRGB">
<feFlood flood-opacity="0" result="BackgroundImageFix"/>
<feColorMatrix in="SourceAlpha" type="matrix" values="0 0 0 0 0 0 0 0 0 0 0 0 0 0 0 0 0 0 127 0" result="hardAlpha"/>
<feMorphology radius="1" operator="dilate" in="SourceAlpha" result="effect1_dropShadow_1_833"/>
<feOffset dy="4"/>
<feGaussianBlur stdDeviation="2"/>
<feComposite in2="hardAlpha" operator="out"/>
<feColorMatrix type="matrix" values="0 0 0 0 0 0 0 0 0 0 0 0 0 0 0 0 0 0 0.25 0"/>
<feBlend mode="normal" in2="BackgroundImageFix" result="effect1_dropShadow_1_833"/>
<feBlend mode="normal" in="SourceGraphic" in2="effect1_dropShadow_1_833" result="shape"/>
</filter>
</defs>
</svg>
