<svg width="1186" height="50" viewBox="0 0 1186 50" fill="none" xmlns="http://www.w3.org/2000/svg">
<path fill-rule="evenodd" clip-rule="evenodd" d="M422.644 25.1485L424.333 24.7893C478.758 13.2159 530.44 2.22606 593.137 2.00344C655.835 2.22606 707.517 13.2159 761.942 24.7893L763.631 25.1485C847.954 43.0772 891.043 47.2241 919.794 47.2241C942.752 47.2241 1106.34 48.2047 1185.27 48.695L1185.28 47.695C1106.35 47.2047 942.756 46.2241 919.794 46.2241C891.143 46.2241 848.132 42.0927 763.839 24.1704L762.119 23.8045C709.216 12.5549 658.812 1.8365 598.332 1.04656L598.333 1.00968C596.592 0.999337 594.861 0.997327 593.137 1.00344C591.414 0.997327 589.683 0.999337 587.943 1.00968L587.943 1.04656C527.463 1.8365 477.059 12.5549 424.156 23.8045L422.436 24.1704C338.143 42.0927 295.132 46.2241 266.482 46.2241C243.519 46.2241 79.9246 47.2047 1 47.695L1.00621 48.695C79.9337 48.2047 243.523 47.2241 266.482 47.2241C295.232 47.2241 338.321 43.0772 422.644 25.1485Z" fill="#848382"/>
<path d="M424.333 24.7893L424.437 25.2784L424.333 24.7893ZM422.644 25.1485L422.748 25.6376L422.748 25.6376L422.644 25.1485ZM593.137 2.00344L593.139 1.50343L593.136 1.50344L593.137 2.00344ZM761.942 24.7893L761.838 25.2784V25.2784L761.942 24.7893ZM763.631 25.1485L763.527 25.6376L763.631 25.1485ZM1185.27 48.695L1185.27 49.195L1185.77 49.1981L1185.77 48.6981L1185.27 48.695ZM1185.28 47.695L1185.78 47.6981L1185.78 47.1982L1185.28 47.195L1185.28 47.695ZM763.839 24.1704L763.735 24.6594V24.6594L763.839 24.1704ZM762.119 23.8045L762.015 24.2936L762.119 23.8045ZM598.332 1.04656L597.832 1.04325L597.829 1.54003L598.326 1.54652L598.332 1.04656ZM598.333 1.00968L598.833 1.01299L598.836 0.512661L598.336 0.509688L598.333 1.00968ZM593.137 1.00344L593.136 1.50345L593.139 1.50343L593.137 1.00344ZM587.943 1.00968L587.94 0.509688L587.439 0.512661L587.443 1.01299L587.943 1.00968ZM587.943 1.04656L587.949 1.54652L588.446 1.54003L588.443 1.04325L587.943 1.04656ZM424.156 23.8045L424.26 24.2936L424.156 23.8045ZM422.436 24.1704L422.54 24.6594L422.54 24.6594L422.436 24.1704ZM1 47.695L0.996894 47.195L0.496903 47.1982L0.50001 47.6981L1 47.695ZM1.00621 48.695L0.506222 48.6981L0.509328 49.1981L1.00932 49.195L1.00621 48.695ZM424.229 24.3003L422.54 24.6594L422.748 25.6376L424.437 25.2784L424.229 24.3003ZM593.136 1.50344C530.38 1.72627 478.652 12.7274 424.229 24.3003L424.437 25.2784C478.865 13.7044 530.499 2.72585 593.139 2.50344L593.136 1.50344ZM593.136 2.50344C655.775 2.72585 707.41 13.7044 761.838 25.2784L762.046 24.3003C707.624 12.7274 655.895 1.72627 593.139 1.50344L593.136 2.50344ZM761.838 25.2784L763.527 25.6376L763.735 24.6594L762.046 24.3003L761.838 25.2784ZM763.527 25.6376C847.865 43.5695 890.993 47.7241 919.794 47.7241V46.7241C891.093 46.7241 848.043 42.585 763.735 24.6594L763.527 25.6376ZM919.794 47.7241C942.75 47.7241 1106.34 48.7047 1185.27 49.195L1185.27 48.195C1106.35 47.7047 942.754 46.7241 919.794 46.7241V47.7241ZM1185.77 48.6981L1185.78 47.6981L1184.78 47.692L1184.77 48.692L1185.77 48.6981ZM1185.28 47.195C1106.35 46.7047 942.758 45.7241 919.794 45.7241V46.7241C942.754 46.7241 1106.35 47.7047 1185.27 48.195L1185.28 47.195ZM919.794 45.7241C891.194 45.7241 848.221 41.6005 763.943 23.6813L763.735 24.6594C848.043 42.585 891.093 46.7241 919.794 46.7241V45.7241ZM763.943 23.6813L762.223 23.3155L762.015 24.2936L763.735 24.6594L763.943 23.6813ZM762.223 23.3155C709.323 12.0664 658.874 1.33727 598.339 0.546605L598.326 1.54652C658.75 2.33574 709.109 13.0433 762.015 24.2936L762.223 23.3155ZM597.833 1.00637L597.832 1.04325L598.832 1.04987L598.833 1.01299L597.833 1.00637ZM593.139 1.50343C594.861 1.49733 596.591 1.49934 598.33 1.50967L598.336 0.509688C596.594 0.499336 594.861 0.497324 593.136 0.50344L593.139 1.50343ZM593.139 0.50344C591.414 0.497324 589.681 0.499336 587.94 0.509688L587.946 1.50967C589.684 1.49934 591.414 1.49733 593.136 1.50343L593.139 0.50344ZM587.443 1.01299L587.443 1.04987L588.443 1.04325L588.443 1.00637L587.443 1.01299ZM424.26 24.2936C477.166 13.0433 527.525 2.33574 587.949 1.54652L587.936 0.546605C527.401 1.33727 476.952 12.0664 424.052 23.3155L424.26 24.2936ZM422.54 24.6594L424.26 24.2936L424.052 23.3155L422.332 23.6813L422.54 24.6594ZM266.482 46.7241C295.182 46.7241 338.232 42.585 422.54 24.6594L422.332 23.6813C338.054 41.6005 295.081 45.7241 266.482 45.7241V46.7241ZM1.00311 48.195C79.9291 47.7047 243.521 46.7241 266.482 46.7241V45.7241C243.517 45.7241 79.92 46.7047 0.996894 47.195L1.00311 48.195ZM1.5062 48.6919L1.49999 47.6919L0.50001 47.6981L0.506222 48.6981L1.5062 48.6919ZM266.482 46.7241C243.521 46.7241 79.9291 47.7047 1.00311 48.195L1.00932 49.195C79.9382 48.7047 243.525 47.7241 266.482 47.7241V46.7241ZM422.54 24.6594C338.232 42.585 295.182 46.7241 266.482 46.7241V47.7241C295.282 47.7241 338.411 43.5695 422.748 25.6376L422.54 24.6594Z" fill="black"/>
</svg>
