<svg width="27" height="27" viewBox="0 0 27 27" fill="none" xmlns="http://www.w3.org/2000/svg">
<path d="M5.44913 15.5325L14.2384 5.43263C15.6947 3.75923 18.2318 3.58321 19.9052 5.03947C21.5786 6.49573 21.7546 9.03282 20.2984 10.7062L18.981 12.22C18.3305 11.9572 17.6196 11.8124 16.8748 11.8124C13.7682 11.8124 11.2498 14.3308 11.2498 17.4374M5.44913 15.5325C3.99287 17.2059 4.1689 19.743 5.8423 21.1992C7.91642 23.0042 10.4088 22.0703 11.9986 20.2435C11.5223 19.4176 11.2498 18.4593 11.2498 17.4374M5.44913 15.5325L10.2833 9.97756M11.2498 17.4374C11.2498 15.8564 11.9021 14.4278 12.9522 13.4059" stroke="#3F7090" stroke-width="1.5"/>
<path opacity="0.5" d="M10.2832 9.97766C11.1673 11.5318 11.9545 12.5838 12.9522 13.406" stroke="#3F7090" stroke-width="1.5"/>
<path d="M17.9556 6.17138C16.5061 5.79744 15.6272 6.80743 15.1877 7.31242" stroke="#3F7090" stroke-width="1.5" stroke-linecap="round"/>
<path d="M22.5 17.4375C22.5 20.5441 19.9816 23.0625 16.875 23.0625C13.7684 23.0625 11.25 20.5441 11.25 17.4375C11.25 14.3309 13.7684 11.8125 16.875 11.8125C19.9816 11.8125 22.5 14.3309 22.5 17.4375Z" stroke="#3F7090" stroke-width="1.5"/>
<path opacity="0.5" d="M13.0718 18.4567L20.6784 16.4185" stroke="#3F7090" stroke-width="1.5" stroke-linecap="round"/>
</svg>
