<svg width="24" height="24" viewBox="0 0 24 24" fill="none" xmlns="http://www.w3.org/2000/svg">
<path opacity="0.4" d="M16 12.4V15.4C16 19.4 14.4 21 10.4 21H6.6C2.6 21 1 19.4 1 15.4V11.6C1 7.6 2.6 6 6.6 6H9.6" stroke="#3F7090" stroke-width="1.5" stroke-linecap="round" stroke-linejoin="round"/>
<path d="M16.0001 12.4H12.8001C10.4001 12.4 9.6001 11.6 9.6001 9.2V6L16.0001 12.4Z" stroke="#3F7090" stroke-width="1.5" stroke-linecap="round" stroke-linejoin="round"/>
<path opacity="0.4" d="M6 4C6 2.34 7.34 1 9 1H15M21 7V13.19C21 14.74 19.74 16 18.19 16" stroke="#3F7090" stroke-width="1.5" stroke-linecap="round" stroke-linejoin="round"/>
<path d="M21 7H18C15.75 7 15 6.25 15 4V1L21 7Z" stroke="#3F7090" stroke-width="1.5" stroke-linecap="round" stroke-linejoin="round"/>
</svg>
