<svg width="24" height="27" viewBox="0 0 24 27" fill="none" xmlns="http://www.w3.org/2000/svg">
<path d="M9 24.75H7C3 24.75 2 23.625 2 19.125V7.875C2 3.375 3 2.25 7 2.25H8.5C10 2.25 10.33 2.745 10.9 3.6L12.4 5.85C12.78 6.4125 13 6.75 14 6.75H17C21 6.75 22 7.875 22 12.375V14.625" stroke="#3F7090" stroke-width="1.5" stroke-miterlimit="10" stroke-linecap="round" stroke-linejoin="round"/>
<path opacity="0.4" d="M13.7591 20.61C11.4091 20.8012 11.4091 24.6262 13.7591 24.8175H19.3191C19.9891 24.8175 20.6491 24.5362 21.1391 24.03C22.7891 22.41 21.9091 19.17 19.7391 18.8662C18.9591 13.59 12.1791 15.5925 13.7791 20.6212" stroke="#3F7090" stroke-width="1.5" stroke-miterlimit="10" stroke-linecap="round" stroke-linejoin="round"/>
</svg>
