<svg width="25" height="25" viewBox="0 0 25 25" fill="none" xmlns="http://www.w3.org/2000/svg">
<path d="M6.51369 19.0492C6.40283 19.4483 6.63649 19.8617 7.03559 19.9726C7.4347 20.0835 7.8481 19.8498 7.95897 19.4507L6.51369 19.0492ZM17.7637 19.4507C17.8745 19.8498 18.288 20.0835 18.6871 19.9726C19.0862 19.8618 19.3198 19.4484 19.209 19.0493L17.7637 19.4507ZM9.86208 9.3125L10.6121 9.31535V9.3125H9.86208ZM12.8401 12.3125L12.8376 13.0625H12.8401V12.3125ZM6.88538 23.3081L6.63767 24.016L6.88538 23.3081ZM2.05325 18.4759L1.34533 18.7237L2.05325 18.4759ZM23.6694 18.4759L24.3773 18.7237L23.6694 18.4759ZM18.8373 23.3081L19.085 24.016L18.8373 23.3081ZM6.88538 1.69192L7.13309 2.39983L6.88538 1.69192ZM2.05325 6.52405L2.76116 6.77176L2.05325 6.52405ZM15.1009 2.00895C15.5151 2.0147 15.8555 1.68361 15.8613 1.26944C15.867 0.855262 15.5359 0.514846 15.1217 0.509095L15.1009 2.00895ZM24.8522 11.3646C24.8465 10.9504 24.5061 10.6193 24.0919 10.6251C23.6777 10.6308 23.3466 10.9712 23.3524 11.3854L24.8522 11.3646ZM12.8613 14.5625C11.1602 14.5626 9.74637 15.0238 8.66133 15.8375C7.5775 16.6504 6.86563 17.7823 6.51369 19.0492L7.95897 19.4507C8.23203 18.4677 8.77016 17.6309 9.56132 17.0375C10.3513 16.4451 11.4375 16.0626 12.8613 16.0625L12.8613 14.5625ZM19.209 19.0493C18.857 17.7823 18.1452 16.6504 17.0613 15.8375C15.9763 15.0237 14.5625 14.5625 12.8613 14.5625L12.8613 16.0625C14.2852 16.0625 15.3714 16.445 16.1613 17.0375C16.9525 17.6309 17.4906 18.4677 17.7637 19.4507L19.209 19.0493ZM12.8621 13.0625C14.9329 13.0625 16.6121 11.3843 16.6121 9.3125H15.1121C15.1121 10.5557 14.1047 11.5625 12.8621 11.5625V13.0625ZM16.6121 9.3125C16.6121 7.24157 14.933 5.5625 12.8621 5.5625V7.0625C14.1046 7.0625 15.1121 8.06999 15.1121 9.3125H16.6121ZM12.8621 5.5625C10.7911 5.5625 9.11208 7.24157 9.11208 9.3125H10.6121C10.6121 8.06999 11.6196 7.0625 12.8621 7.0625V5.5625ZM9.11209 9.30965C9.10423 11.375 10.7718 13.0556 12.8376 13.0625L12.8426 11.5625C11.6059 11.5584 10.6074 10.5524 10.6121 9.31535L9.11209 9.30965ZM12.8401 13.0625H12.8621V11.5625H12.8401V13.0625ZM12.8613 23C9.65655 23 8.24542 22.9894 7.13309 22.6002L6.63767 24.016C8.0512 24.5106 9.78209 24.5 12.8613 24.5V23ZM0.861328 12.5C0.861328 15.5792 0.850719 17.3101 1.34533 18.7237L2.76116 18.2282C2.37194 17.1159 2.36133 15.7048 2.36133 12.5H0.861328ZM7.13309 22.6002C5.08646 21.884 3.47731 20.2749 2.76116 18.2282L1.34533 18.7237C2.21225 21.2012 4.16017 23.1491 6.63767 24.016L7.13309 22.6002ZM23.3613 12.5C23.3613 15.7048 23.3507 17.1159 22.9615 18.2282L24.3773 18.7237C24.8719 17.3101 24.8613 15.5792 24.8613 12.5H23.3613ZM12.8613 24.5C15.9406 24.5 17.6715 24.5106 19.085 24.016L18.5896 22.6002C17.4772 22.9894 16.0661 23 12.8613 23V24.5ZM22.9615 18.2282C22.2453 20.2749 20.6362 21.884 18.5896 22.6002L19.085 24.016C21.5625 23.1491 23.5104 21.2012 24.3773 18.7237L22.9615 18.2282ZM12.8613 0.5C9.78209 0.5 8.0512 0.489391 6.63767 0.984006L7.13309 2.39983C8.24542 2.01061 9.65655 2 12.8613 2V0.5ZM2.36133 12.5C2.36133 9.29522 2.37194 7.88409 2.76116 6.77176L1.34533 6.27634C0.850719 7.68987 0.861328 9.42076 0.861328 12.5H2.36133ZM6.63767 0.984006C4.16017 1.85092 2.21225 3.79884 1.34533 6.27634L2.76116 6.77176C3.47731 4.72513 5.08646 3.11598 7.13309 2.39983L6.63767 0.984006ZM12.8613 2C13.7217 2 14.4574 2.00002 15.1009 2.00895L15.1217 0.509095C14.4656 0.499985 13.7185 0.5 12.8613 0.5V2ZM24.8613 12.5C24.8613 11.6345 24.8612 12.0107 24.8522 11.3646L23.3524 11.3854C23.3615 12.039 23.3613 11.648 23.3613 12.5H24.8613Z" fill="#3F7090"/>
</svg>
