<svg width="32" height="32" viewBox="0 0 32 32" fill="none" xmlns="http://www.w3.org/2000/svg">
<path d="M13.3332 5.33331H18.6665C24.5598 5.33331 29.3332 10.1066 29.3332 16C29.3332 21.8933 24.5598 26.6666 18.6665 26.6666H13.3332C7.43984 26.6666 2.6665 21.8933 2.6665 16C2.6665 10.1066 7.43984 5.33331 13.3332 5.33331Z" stroke="#5E5E5E" stroke-width="1.5" stroke-linecap="round" stroke-linejoin="round"/>
<path opacity="0.4" d="M13.3333 21.3334C14.7478 21.3334 16.1044 20.7715 17.1046 19.7713C18.1048 18.7711 18.6667 17.4145 18.6667 16C18.6667 14.5855 18.1048 13.229 17.1046 12.2288C16.1044 11.2286 14.7478 10.6667 13.3333 10.6667C11.9188 10.6667 10.5623 11.2286 9.5621 12.2288C8.5619 13.229 8 14.5855 8 16C8 17.4145 8.5619 18.7711 9.5621 19.7713C10.5623 20.7715 11.9188 21.3334 13.3333 21.3334V21.3334Z" stroke="#5E5E5E" stroke-width="1.5" stroke-linecap="round" stroke-linejoin="round"/>
</svg>
