<svg width="36" height="36" viewBox="0 0 36 36" fill="none" xmlns="http://www.w3.org/2000/svg">
<path d="M32.5051 21.45L31.9051 28.95C31.6801 31.245 31.5001 33 27.4351 33H8.56514C4.50014 33 4.32014 31.245 4.09514 28.95L3.49514 21.45C3.37514 20.205 3.76514 19.05 4.47014 18.165L4.50014 18.135C5.32514 17.13 6.57014 16.5 7.96514 16.5H28.0351C29.4301 16.5 30.6601 17.13 31.4701 18.105C31.4851 18.12 31.5001 18.135 31.5001 18.15C32.2351 19.035 32.6401 20.19 32.5051 21.45Z" stroke="#F2CC8F" stroke-width="3" stroke-miterlimit="10"/>
<path opacity="0.4" d="M5.25 17.1465V9.42151C5.25 4.32151 6.525 3.04651 11.625 3.04651H13.53C15.435 3.04651 15.87 3.61651 16.59 4.57651L18.495 7.12651C18.975 7.75651 19.26 8.14651 20.535 8.14651H24.36C29.46 8.14651 30.735 9.42151 30.735 14.5215V17.2065M14.145 25.5H21.855" stroke="#F2CC8F" stroke-width="3" stroke-miterlimit="10" stroke-linecap="round" stroke-linejoin="round"/>
</svg>
