<svg width="36" height="36" viewBox="0 0 36 36" fill="none" xmlns="http://www.w3.org/2000/svg">
<path d="M15 28.5C15 30.15 16.35 31.5 18 31.5C19.65 31.5 21 30.15 21 28.5C21 26.85 19.65 25.5 18 25.5C16.35 25.5 15 26.85 15 28.5ZM15 7.5C15 9.15 16.35 10.5 18 10.5C19.65 10.5 21 9.15 21 7.5C21 5.85 19.65 4.5 18 4.5C16.35 4.5 15 5.85 15 7.5Z" stroke="#9D9C9B"/>
<path opacity="0.4" d="M15 18C15 19.65 16.35 21 18 21C19.65 21 21 19.65 21 18C21 16.35 19.65 15 18 15C16.35 15 15 16.35 15 18Z" stroke="#FF3500"/>
</svg>
