<svg width="28" height="27" viewBox="0 0 28 27" fill="none" xmlns="http://www.w3.org/2000/svg">
<path d="M2.5 24.75H25" stroke="#3F7090" stroke-width="1.5" stroke-miterlimit="10" stroke-linecap="round" stroke-linejoin="round"/>
<path d="M11.2188 4.5V24.75H16.2812V4.5C16.2812 3.2625 15.775 2.25 14.2562 2.25H13.2438C11.725 2.25 11.2188 3.2625 11.2188 4.5V4.5Z" stroke="#3F7090" stroke-width="1.5" stroke-linecap="round" stroke-linejoin="round"/>
<path opacity="0.4" d="M3.625 11.25V24.75H8.125V11.25C8.125 10.0125 7.675 9 6.325 9H5.425C4.075 9 3.625 10.0125 3.625 11.25ZM19.375 16.875V24.75H23.875V16.875C23.875 15.6375 23.425 14.625 22.075 14.625H21.175C19.825 14.625 19.375 15.6375 19.375 16.875V16.875Z" stroke="#3F7090" stroke-width="1.5" stroke-linecap="round" stroke-linejoin="round"/>
</svg>
