<svg width="27" height="27" viewBox="0 0 27 27" fill="none" xmlns="http://www.w3.org/2000/svg">
<path opacity="0.34" d="M13.5 16.875C14.3951 16.875 15.2536 16.5194 15.8865 15.8865C16.5194 15.2536 16.875 14.3951 16.875 13.5C16.875 12.6049 16.5194 11.7464 15.8865 11.1135C15.2536 10.4806 14.3951 10.125 13.5 10.125C12.6049 10.125 11.7464 10.4806 11.1135 11.1135C10.4806 11.7464 10.125 12.6049 10.125 13.5C10.125 14.3951 10.4806 15.2536 11.1135 15.8865C11.7464 16.5194 12.6049 16.875 13.5 16.875V16.875Z" stroke="#3F7090" stroke-width="1.5" stroke-miterlimit="10" stroke-linecap="round" stroke-linejoin="round"/>
<path d="M2.25 14.4911V12.5111C2.25 11.3411 3.20625 10.3736 4.3875 10.3736C6.42375 10.3736 7.25625 8.93365 6.2325 7.1674C5.6475 6.1549 5.99625 4.83865 7.02 4.25365L8.96625 3.1399C9.855 2.61115 11.0025 2.92615 11.5312 3.8149L11.655 4.02865C12.6675 5.7949 14.3325 5.7949 15.3562 4.02865L15.48 3.8149C16.0088 2.92615 17.1563 2.61115 18.045 3.1399L19.9913 4.25365C21.015 4.83865 21.3637 6.1549 20.7787 7.1674C19.755 8.93365 20.5875 10.3736 22.6238 10.3736C23.7938 10.3736 24.7613 11.3299 24.7613 12.5111V14.4911C24.7613 15.6611 23.805 16.6286 22.6238 16.6286C20.5875 16.6286 19.755 18.0686 20.7787 19.8349C21.3637 20.8587 21.015 22.1636 19.9913 22.7486L18.045 23.8624C17.1563 24.3911 16.0088 24.0761 15.48 23.1874L15.3562 22.9736C14.3437 21.2074 12.6787 21.2074 11.655 22.9736L11.5312 23.1874C11.0025 24.0761 9.855 24.3911 8.96625 23.8624L7.02 22.7486C6.52961 22.4663 6.17128 22.0009 6.02364 21.4546C5.876 20.9084 5.95111 20.3258 6.2325 19.8349C7.25625 18.0686 6.42375 16.6286 4.3875 16.6286C3.20625 16.6286 2.25 15.6611 2.25 14.4911V14.4911Z" stroke="#3F7090" stroke-width="1.5" stroke-miterlimit="10" stroke-linecap="round" stroke-linejoin="round"/>
</svg>
