<svg width="24" height="24" viewBox="0 0 24 24" fill="none" xmlns="http://www.w3.org/2000/svg">
<path d="M17.2898 4.14102L17.2198 7.93102C17.2098 8.45102 17.5398 9.14102 17.9598 9.45102L20.4398 11.331C22.0298 12.531 21.7698 14.001 19.8698 14.601L16.6398 15.611C16.0998 15.781 15.5298 16.371 15.3898 16.921L14.6198 19.861C14.0098 22.181 12.4898 22.411 11.2298 20.371L9.46978 17.521C9.14978 17.001 8.38978 16.611 7.78978 16.641L4.44978 16.811C2.05978 16.931 1.37978 15.551 2.93978 13.731L4.91978 11.431C5.28978 11.001 5.45978 10.201 5.28978 9.66102L4.27978 6.43102C3.68978 4.53102 4.74978 3.48102 6.63978 4.10102L9.58978 5.07102C10.0898 5.23102 10.8398 5.12102 11.2598 4.81102L14.3398 2.59102C15.9998 1.39102 17.3298 2.09102 17.2898 4.14102V4.14102Z" stroke="#3F7090" stroke-width="1.5" stroke-linecap="round" stroke-linejoin="round"/>
<path opacity="0.4" d="M21.9099 21.999L18.8799 18.969" stroke="#3F7090" stroke-width="1.5" stroke-linecap="round" stroke-linejoin="round"/>
</svg>
